<?xml version="1.0" encoding="utf-8"?>
<!-- Generator: Adobe Illustrator 16.0.3, SVG Export Plug-In . SVG Version: 6.00 Build 0)  -->
<!DOCTYPE svg PUBLIC "-//W3C//DTD SVG 1.1//EN" "http://www.w3.org/Graphics/SVG/1.1/DTD/svg11.dtd">
<svg version="1.1" id="Layer_1" xmlns="http://www.w3.org/2000/svg" xmlns:xlink="http://www.w3.org/1999/xlink" x="0px" y="0px"
	 width="763.3px" height="595.2px" viewBox="39.2 -0.1 763.3 595.2" enable-background="new 39.2 -0.1 763.3 595.2"
	 xml:space="preserve">
<g id="CutContour">
	<path fill="#FFFFFF" stroke="#FFFFFF" stroke-width="0.25" stroke-miterlimit="10" d="M791.2,354.6c-9.2-12.4-21.7-20.5-36.4-23.2
		l-0.7-0.2c-2-0.4-3.8-0.5-5.7-0.5c-9.7,0-18.1,3.9-25.7,8.6c0.5-4.3,0.5-8.6,0-13.1c1.3-11.7-1.1-23.7-6.8-35
		c-6.3-12.6-16-22.1-27.8-27.1c3.1-4.8,5.7-10.4,7-16.7v-0.4l13.5-78.2c2.3-11.5,5.6-23,9-34.6c5.9-20.8,12.4-41.5,17.4-57.1
		l0.4-1.3c0-0.2,0.2-0.5,0.2-0.7l0.4-1.4c0.9-4.8,1.1-9.9,0.4-14.9c1.3-9-0.2-18.3-4.7-27.8c-5-10.8-12.2-18.7-21.5-23.3l-10.4-5.2
		c-0.5-0.4-1.3-0.5-1.8-0.7l-3.4-0.7c-3.4-0.7-7-1.1-10.6-1.1c-0.4,0-0.5,0-0.9,0c-0.9,0-1.6,0-2.3,0c-15.3,0-29.1,9.2-38,25.3
		l-0.2,1.6c-0.2,0.4-0.4,0.5-0.4,0.9l-0.5,1.4c-1.1,2.7-2.3,5.6-3.6,8.4c-2.9-0.4-5.7-0.4-8.4-0.4c-28,0-54.7,13.6-79.3,40.7
		c-0.4,0.4-0.5,0.7-0.9,1.1c-8.8-6.1-20.1-12.6-31.8-15.6c-21.9-5.7-70-10.2-95.1-10.2c-3.2,0-6.1,0-8.6,0.2
		c-16.3,0.9-30.2,7.5-38,12.2c-3.8-5.2-9.7-11.8-17.4-16.2c-10.8-5.9-34.5-7.2-44.5-7.4c-1.8-2.5-4.7-5.9-8.4-9
		c-6.1-4.8-19.7-10.4-37.5-10.4c-1.6,0-3.2,0-5,0.2c-1.3,0-2.9,0.2-4.5,0.2c-17,0-43.1-4.3-43.4-4.5c-0.4,0-0.9-0.2-1.3-0.2
		c-2,0-3.8,0.7-5.2,2c-1.8,1.6-2.7,3.9-2.5,6.3c0,0.2,0.4,3.4,0.7,7.2c-6.1-6.5-13.1-12.2-21.2-17.2c0,0-0.2,0-0.2-0.2
		C168.3,5.9,150.5,0.7,132.2,0.7c-8.3,0-16.7,1.1-25.1,3.4l-2.5,0.7c-0.5,0.2-1.1,0.4-1.4,0.5l-2.3,1.3
		c-13.6,6.8-25.7,18.8-35.9,35.7l-0.5,0.2L64,43.3c-11.7,21.4-17.2,47.2-16.3,77c-0.2,8.4,0,17.4,0.9,26.4
		c0.5,6.8,1.4,13.8,2.9,20.8c-1.8,3.2-3.1,7-4.3,11.1c-2.2,7.5-2.7,14.2-1.6,20.6c-0.7,6.1-0.5,11.7,0.9,17
		c3.2,12.2,11.8,22.4,24.8,29.3c2.7,1.4,5.6,2.7,8.4,3.8c3.4,7.2,7,14.2,10.6,21.4l2.3,4.5c1.3,2.3,2.3,4.7,3.6,7l1.3,4.8
		c0.4,1.6,1.3,2.9,2.5,3.9l6.5,5.4c0.9,0.7,1.4,1.1,1.8,1.4c0.4,0.2,0.5,0.5,0.7,0.7c-2.3,6.1-3.6,12.9-3.6,20.3v1.6
		c0,0.4,0,0.7,0,0.9l0.2,1.6c0,0.4,0.2,1.3,0.2,1.3c-0.2,2.3-0.4,4.5-0.4,6.8v1.6c0,0.4,0,0.7,0,0.9l0.2,1.1
		c-29.4,12.6-49.9,40.6-59.8,80.9c-4.7,19.7-6.8,38.9-6.3,57.1c-0.5,14.4,0.7,28.4,3.4,41.6l0.2,0.5c0,0.2,0.2,0.9,0.2,0.9
		c5.4,22.1,17.8,40.7,36.8,55.8c17,13.3,36.6,20.5,56.5,20.5c6.1,0,12.2-0.7,18.3-2h0.2c4.5-0.9,9.2-2.2,14.7-3.9
		c10.6-3.2,20.5-9.5,29.6-18.5c2.7,0.5,5.6,0.7,8.3,0.7c4.5,0,9-0.7,13.5-2.2c6.8-2.2,13.3-5.7,19.6-10.9c7-5.6,11.8-12.2,14.9-19.4
		c2.9,0.5,5.9,0.9,9,0.9c4.3,0,8.6-0.5,12.9-1.8l1.1-0.4c0.2,0,0.4-0.2,0.5-0.2h0.2c0.4,0,1.4-0.4,1.4-0.4c7-1.8,13.5-5.6,19.9-11.1
		c-2.3,5.9-3.4,12.6-2,19.6c-1.6,8.4-0.5,20.8,11.1,33.7c10.2,11.3,31,16.9,61.6,16.9c31.6,0,69.8-6.5,95.3-16
		c11.8-4.5,19.6-10.6,23-18.3c2.2-4.8,2.5-10.1,1.1-15.4c1.6-5.9,0.9-12.2-2.5-18.5c-3.2-6.1-9.2-12.2-16-16.7
		c3.1,0.5,6.5,0.9,9.9,0.9c1.8,0,3.6,0,5.4-0.2c12.4-0.5,24-7,32.7-17.9l0.2-0.4l0.5-0.7c1.1,2.7,2.5,5.4,4.1,7.9
		c8.4,13.3,22.3,21,37.9,21h1.4c0.4,0,0.5,0,0.9,0l1.4-0.2c3.2-0.4,6.3-1.1,9.5-2c2.5,21.7,11.7,36.8,26.9,44.7
		c3.4,1.8,7.2,3.1,10.9,3.9c5,1.3,10.2,2,15.6,2c4.8,0,9.7-0.5,14.5-1.6l3.9-0.9c0.7-0.2,1.6-0.5,2.2-0.9l9.9-5.7l0.5-0.4
		c3.8-2.3,7.2-5,10-8.1c9.9,19.2,22.6,37.1,41.1,42.4c1.6,0.7,3.1,1.3,6.6,2l0.5,0.2l0.7,0.2c3.1,0.5,6.1,0.7,9.2,0.7l0,0
		c7.5,0,15.3-1.6,23-4.7l0.7-0.4c16.2-7,26.9-20.3,30-36.4l0.2-0.7c0.5-3.4,0.5-7.2-0.2-11.5l0.2-0.9c2.2-14.4-6.5-34.3-12.2-47.6
		l-1.4-3.2l-12.2-28l-0.2-0.4c2.2-1.6,7-5,7-5l1.6-1.3c13.8-10.6,32.7-25.1,36.3-44c1.1-5.6,1.3-11.1,0.5-16.5
		C803.7,380.3,800,366.6,791.2,354.6z M453.2,499.8c-0.4,0-0.7-0.2-1.3-0.2c-4.1-0.7-6.8-2.2-8.6-3.8c0.9-0.7,2-1.4,3.1-2.3
		C448.6,495.7,450.9,497.8,453.2,499.8z M316.3,482c1.1-8.4,0-17.2-3.6-25.5l-0.4-0.9c0-0.2-0.2-0.4-0.2-0.5l-2.2-4.3
		c14.9,17.9,28.5,27.3,34.8,31l0.9,5c-3.4,3.9-9.3,9.2-17.9,11.7c-5.4,1.6-10.6,4.5-15.1,8.3C316.1,499.3,317.4,490.8,316.3,482z"/>
</g>
<g id="food-drink-1-FC">
	<g>
		<path fill="#6487BF" d="M673.6,279.8c2.5,0.5,4.3,1.1,6.1,1.8c13.1,3.6,23.2,12.9,29.4,25.5c5.4,10.6,7.7,22.4,5.6,34.3l-0.2,1.1
			l-8.1,30.5c4.7-3.6,9.3-7,14-10.4c9.5-6.6,20.3-13.3,32.3-11.1h0.2h0.2c13.1,2.5,23.9,9.5,31.8,20.3c8.3,11.1,11.5,24.4,9,37.9
			c-3.1,16.3-21.9,30.5-34.5,40.2l-0.4,0.4l-0.4,0.2c-4.8,3.4-9.7,6.8-14.4,10.2l5.2,16.2c4.1,9.3,8.3,18.7,12.2,28l0,0l0,0
			c5.2,12.2,15.3,33.4,13.1,46.7v0.4v0.4c-2.5,14.4-12.2,25.1-25.5,30.9l-0.2,0.2l-0.2,0.2c-8.8,3.6-18.3,5.2-27.8,3.4h-0.5
			l-0.5-0.2c-3.4-0.7-4.1-1.1-5.6-1.8c-20.3-5.6-33.6-31-42.4-50.3c-3.2,6.8-8.6,12.6-15.3,16.7l-0.2,0.2l-0.2,0.2
			c-2.2,1.3-4.1,2.5-6.3,3.6l-3.6,2.2l-3.9,0.9c-8.8,2-17.9,2-26.7-0.4c-3.2-0.7-6.3-1.8-9.3-3.2c-17.8-9.2-23.2-28.7-23.5-49.2
			c-5.2,3.1-10.9,5-17.2,5.6l-1.4,0.2h-1.3c-13.1,0-24.4-6.5-31.4-17.4c-4.7-7.2-7-15.4-7-23.9c0-3.8,0.5-7.4,1.4-11.1
			c0.4-2.5,0.5-5.9,0.5-8.4v-0.2l0.4-7.4c-0.4,1.6-0.7,3.2-1.1,4.8l-0.2,0.5l-0.2,0.5c-1.3,5.6-2,11.1-2.3,16.7l-0.2,3.8l-1.4,3.6
			c-1.6,4.5-4.1,8.8-7,12.6l-0.2,0.4l-0.2,0.4c-6.8,8.6-16,14.5-27.1,14.9c-5.9,0.5-11.7,0.2-17.2-1.6h-1.4l-5.6-2.7
			c-7-3.6-12-8.8-15.3-15.1c-8.4,8.4-15.8,11.7-15.8,11.7s-4.1,21.7,18.5,25.8c22.6,4.1,54.7,35,13.5,50.6
			c-41.3,15.4-126.9,24.8-148.6,1.1c-21.7-23.7-3.1-47.4,14.4-52.6c17.6-5.2,25.8-19.6,25.8-19.6l-4.1-21.7c0,0-18.8-9.2-39.7-35.7
			c-7.9,2.3-15.1,2-21.5-0.4c0.2,0.5,0.4,1.1,0.7,1.6l14.2,28.7l0.4,0.9c6.5,15.8,3.6,32.7-9,44.5l-0.4,0.4l-0.4,0.4
			c-5,4.5-10.8,8.1-17.2,9.7c-0.5,0.2-1.3,0.4-1.8,0.5l-0.4,0.2l-1.1,0.4c-8.4,2.3-17.2,2-25.1-1.3l-0.2,1.6l-0.5,1.8
			c-2.5,7.9-7.5,14.4-13.8,19.6c-5,4.1-10.8,7.5-17,9.5c-7.5,2.3-14.9,2.2-21.7,0.2c-0.9,1.1-2,2-2.9,2.9
			c-7.5,7.4-16.5,13.5-26.6,16.7c-4.7,1.4-9.3,2.7-14,3.8h-0.2h-0.2c-24.9,5.2-48.6-1.4-68.6-17l0,0c-16.9-13.3-28.9-30.5-34.1-51.5
			v-0.9l-0.2-0.5c-5.6-27.6-3.8-55.8,2.9-83.1c8.4-34.8,26.6-66.6,62.1-78.2l-0.7-3.8l-0.2-1.1c-0.4-4.1-0.9-8.1-1.3-12.2l-0.2-1.6
			v-1.6c0-12.6,4.1-24.9,13.8-32.3c-3.1-0.9-5.9-2.2-8.6-3.8c-5-2.9-2.7-1.3-7-4.8l-6.5-5.4l-1.4-5.6c-2-3.9-3.9-7.7-5.9-11.7
			l-0.2-0.2l-0.2-0.2c-3.8-7.5-7.5-15.3-11.3-22.8c-0.2-0.4-0.5-0.9-0.7-1.4c-3.6-1.1-7-2.5-10.2-4.3c-10-5.4-18.1-13.3-21-24.6
			c-2-7.2-1.3-14.4,0.7-21.4c1.6-5.6,3.8-10.8,7.2-15.3c-0.4-1.3-0.7-2.5-0.9-3.6v-0.2v-0.2c-2.3-9.2-3.8-18.3-4.5-27.6
			c-2.7-29.4,0-60.1,14.5-86.5l0.4-0.5l0.4-0.5c8.1-13.3,18.7-25.7,32.8-32.8l2.3-1.3l2.5-0.7c25.3-6.8,49.7-2.3,71.8,11.7l0,0
			c13.3,8.4,24.2,19.2,31.9,32.1h0.2c3.9-1.1,7.5-2,7.5-2s-4.8-9.2-5.7-13.6c-0.9-4.5-1.6-13.3-1.6-13.3s31.9,5.4,49.5,4.3
			c17.6-1.1,31.6,4.1,37.3,8.6c5.7,4.5,9,10.4,9,10.4s33.4,0,45,6.5c11.7,6.5,18.8,20.1,18.8,20.1s18.1-14,40.7-15.3
			s78.4,3.9,101.4,9.9c13.5,3.4,26.4,12,34.8,18.5c1.8-2.2,3.6-4.1,5.4-6.1c23-24.9,52.4-43.1,87-37l0.7-2.3l0.5-1.1
			c1.6-3.6,3.1-7,4.5-10.6l0.5-1.4l0.7-1.4c7.2-12.7,18.8-22.4,33.6-21.4c3.4,0,6.8,0.2,10,0.9l3.4,0.7l3.2,1.6
			c2.3,1.1,4.7,2.3,7,3.4h0.2h0.2c8.3,4.3,14.2,11.3,18.1,19.7c3.8,8.1,5.4,16.9,3.6,25.7l-0.4,1.4l-0.4,1.3
			c-6.3,19.2-12.2,38.2-17.6,57.4c-3.2,11.7-6.6,23.5-9.2,35.4l-13.5,78.1v0.4c-1.6,7.9-6.3,14.9-11.1,21.4l-1.1,1.4l-1.3,1.3
			c-2.2,2-4.3,3.9-6.5,5.9l0.2,2.7C669.7,279.1,671.7,279.4,673.6,279.8"/>
		<path fill="#FFFFFF" d="M673.6,267.4c2.5,0.5,4.3,1.1,6.1,1.8c13.1,3.6,23.2,12.9,29.4,25.5c5.4,10.6,7.7,22.4,5.6,34.3l-0.2,0.9
			l-8.1,30.5c4.7-3.6,9.3-7,14-10.4c9.5-6.6,20.3-13.3,32.3-11.1h0.2h0.2c13.1,2.5,23.9,9.5,31.8,20.3c8.3,11.1,11.5,24.4,9,37.9
			c-3.1,16.3-21.9,30.5-34.5,40.2l-0.4,0.4l-0.4,0.2c-4.8,3.4-9.7,6.8-14.4,10.2l5.2,16.2c4.1,9.3,8.3,18.7,12.2,28l0,0l0,0
			c5.2,12,15.3,33.4,13.1,46.7v0.4v0.4c-2.5,14.4-12.2,25.1-25.5,30.9l-0.2,0.2l-0.2,0.2c-8.8,3.6-18.3,5.2-27.8,3.4h-0.5l-0.5-0.2
			c-3.4-0.7-4.1-1.1-5.6-1.8c-20.3-5.6-33.6-31-42.4-50.3c-3.2,6.8-8.6,12.6-15.3,16.7l-0.2,0.2l-0.2,0.2c-2.2,1.3-4.1,2.5-6.3,3.6
			l-3.6,2.2l-3.9,0.9c-8.8,2-17.9,2-26.7-0.4c-3.2-0.7-6.3-1.8-9.3-3.2c-17.8-9.2-23.2-28.7-23.5-49.2c-5.2,3.1-10.9,5-17.2,5.6
			l-1.4,0.2h-1.3c-13.1,0-24.4-6.5-31.4-17.4c-4.7-7.2-7-15.4-7-23.9c0-3.8,0.5-7.4,1.4-11.1c0.4-2.5,0.5-5.9,0.5-8.4v-0.2l0.4-7.4
			c-0.4,1.6-0.7,3.2-1.1,4.8l-0.2,0.5l-0.2,0.5c-1.3,5.6-2,11.1-2.3,16.7l-0.2,3.8l-1.4,3.6c-1.6,4.5-4.1,8.8-7,12.6l-0.2,0.4
			l-0.2,0.4c-6.8,8.6-16,14.5-27.1,14.9c-5.9,0.5-11.7,0.2-17.2-1.6h-1.4l-5.6-2.7c-7-3.6-12-8.8-15.3-15.1
			c-8.4,8.4-15.8,11.7-15.8,11.7s-4.1,21.7,18.5,25.8c22.6,4.1,54.7,35,13.5,50.6c-41.3,15.4-126.9,24.8-148.6,1.1
			c-21.7-23.7-3.1-47.4,14.4-52.6c17.6-5.2,25.8-19.6,25.8-19.6l-4.1-21.7c0,0-18.8-9.2-39.7-35.7c-7.9,2.3-15.1,2-21.5-0.4
			c0.2,0.5,0.4,1.1,0.7,1.6l14.2,28.7l0.4,0.9c6.5,15.8,3.6,32.7-9,44.5l-0.4,0.4l-0.4,0.4c-5,4.5-10.8,8.1-17.2,9.7
			c-0.5,0.2-1.3,0.4-1.8,0.5l-0.4,0.2l-1.1,0.4c-8.4,2.3-17.2,2-25.1-1.3l-0.2,1.6l-0.5,1.8c-2.5,7.9-7.5,14.4-13.8,19.6
			c-5,4.1-10.8,7.5-17,9.5c-7.5,2.3-14.9,2.2-21.7,0.2c-0.9,1.1-2,2-2.9,2.9c-7.5,7.4-16.5,13.5-26.6,16.7c-4.7,1.4-9.3,2.7-14,3.8
			h-0.2h-0.2c-24.9,5.2-48.6-1.4-68.6-17l0,0c-16.9-13.3-28.9-30.5-34.1-51.5l-0.2-0.5l-0.2-0.5c-5.6-27.6-3.8-55.8,2.9-83.1
			c8.4-34.8,26.6-66.6,62.1-78.2l-0.7-3.8l-0.2-1.1c-0.4-4.1-0.9-8.1-1.3-12.2l-0.2-1.6v-1.6c0-12.6,4.1-24.9,13.8-32.3
			c-3.1-0.9-5.9-2.2-8.6-3.8c-5-2.9-2.7-1.3-7-4.8l-6.5-5.4l-1.4-5.6c-2-3.9-3.9-7.7-5.9-11.7l-0.2-0.2l-0.2-0.2
			c-3.8-7.5-7.5-15.3-11.3-22.8c-0.2-0.4-0.5-0.9-0.7-1.4c-3.6-1.1-7-2.5-10.2-4.3c-10-5.4-18.1-13.3-21-24.6
			c-2-7.2-1.3-14.4,0.7-21.4c1.6-5.6,3.8-10.8,7.2-15.3c-0.4-1.3-0.7-2.5-0.9-3.6v-0.2v-0.2c-2.3-9.2-3.8-18.3-4.5-27.6
			c-2.7-29.4,0-60.1,14.5-86.5l0.4-0.5l0.4-0.5c8.1-13.3,18.7-25.7,32.8-32.8l2.3-1.3l2.5-0.7C134.3,4.5,158.7,9,180.8,23l0,0
			c13.3,8.4,24.2,19.2,31.9,32.1h0.2c3.9-1.1,7.5-2,7.5-2s-4.8-9.2-5.7-13.6c-0.9-4.5-1.6-13.3-1.6-13.3s31.9,5.4,49.5,4.3
			c17.6-1.1,31.6,4.1,37.3,8.6c5.7,4.5,9,10.4,9,10.4s33.4,0,45,6.5c11.7,6.5,18.8,20.1,18.8,20.1s18.1-14,40.7-15.3
			c22.6-1.3,78.4,3.9,101.4,9.9c13.5,3.4,26.4,12,34.8,18.5c1.8-2.2,3.6-4.1,5.4-6.1c23-24.9,52.4-43.1,87-37l0.7-2.3l0.5-1.1
			c1.6-3.6,3.1-7.2,4.5-10.6l0.5-1.4l0.7-1.4c7.2-12.7,18.8-22.4,33.6-21.4c3.4,0,6.8,0.2,10,0.9l3.4,0.7l3.1,1.4
			c2.3,1.1,4.7,2.3,7,3.4h0.2h0.2c8.3,4.3,14.2,11.3,18.1,19.7c3.8,8.1,5.4,16.9,3.6,25.7l-0.4,1.4l-0.4,1.3
			c-6.1,19-12,38-17.4,57.2c-3.2,11.7-6.6,23.5-9.2,35.4l-13.5,78.1v0.4c-1.6,7.9-6.3,14.9-11.1,21.4l-1.1,1.4l-1.3,1.3
			c-2.2,2-4.3,3.9-6.5,5.9l0.2,2.7C669.7,266.7,671.7,267,673.6,267.4"/>
		<polygon fill="#D6C725" points="328.5,285.3 342,247.3 343.1,228.3 469,236.9 465.8,261.8 456.1,299.3 		"/>
		<polygon fill="#F7E532" points="324.6,277.6 337.9,239.6 339.1,220.6 465.1,229.2 461.9,254.1 452.2,291.6 		"/>
		<path fill="#723D38" d="M376.8,264c-0.9,6.1-3.1,9.5-6.5,10.2c-0.7,0.2-1.4,0.2-2.3,0.2h-0.2c-0.5,0-1.3-0.7-2.2-1.6
			c-0.9-1.1-1.4-1.6-2-1.6c-0.4,0-1.1,0.2-2.3,0.9c-1.4,0.7-3.1,0.9-5.2,0.5c-1.1-0.2-2-0.4-2.5-0.5c-2-0.5-3.2-2.2-3.9-4.7
			c-0.5-2-0.7-4.3-0.4-6.5c0.7-5.4,3.6-9.3,8.4-11.7c0.7-0.4,2-0.7,4.1-1.3c1.8-0.4,3.1-0.9,3.8-1.4c1.1-0.9,1.8-2.2,2.2-3.9
			c0-0.2,0-0.5-0.2-1.1c-0.2-0.4-0.2-0.5-0.4-0.9c-0.4-0.2-0.7-0.4-1.1-0.4c-0.9-0.2-1.4,0.2-1.6,1.1c0,0.2,0,0.7,0.4,1.4
			c0.2,0.7,0.4,1.1,0.4,1.3s-0.4,0.5-0.9,1.1c-1.6,1.4-3.8,2-6.3,1.4c-3.1-0.4-4.7-1.6-5-3.2c-0.2-0.7-0.2-1.8,0-3.2
			c0.2-1.6,0.7-2.9,1.6-3.6c3.2-3.4,8.8-4.5,16.5-3.2c5.6,0.9,7.9,3.9,7,9.5c-0.2,1.3-0.5,2.9-1.3,5.2s-1.1,3.9-1.3,5.2
			c-0.2,1.3-0.2,2.3-0.2,3.4l1.8,2.7L376.8,264L376.8,264z M365.3,256.5c0-0.5,0-1.1-0.2-1.6c-0.2-0.5-0.5-0.9-1.1-0.9
			c0,0-0.4,0-0.5,0c-0.4,0-0.5,0-0.5,0c-1.3,0.4-2,1.3-2.2,3.1c-0.2,0.9,0.2,1.8,0.7,2.9c0.4,0.2,0.7,0.2,1.1,0.4
			c0.7,0.2,1.3,0,1.6-0.4C364.8,258.4,365.1,257.5,365.3,256.5L365.3,256.5z M410.2,265.2c0,0.2-0.2,0.9-0.4,1.8
			c-0.2,0.9-0.4,1.4-0.4,1.8c-0.4,2.5-1.1,4.8-2.2,6.6c-1.4,2.5-3.2,3.9-5.4,3.9c-0.2,0-0.7,0-1.3-0.2c-2.3-0.4-3.9-1.4-4.5-3.4
			c-0.5-1.3-0.5-3.2-0.2-5.9c0-0.4,0.2-1.3,0.5-2.7c0.4-1.3,0.5-2.2,0.5-2.5l0.4-2.2c0-0.4,0.2-0.7,0.2-1.3s0-0.7,0-0.9
			c0-0.2,0.2-0.7,0.4-1.4c0.2-0.7,0.2-1.3,0.2-1.3c0.4-2,0-3.2-0.9-4.1c-0.2,0-0.4-0.2-0.5-0.2c-1.3-0.2-2,0.4-2.5,1.6
			c-0.9,2-1.4,3.9-1.6,6.1c0,0.2-0.2,2.5-0.7,7c-0.2,1.1-0.2,2-0.4,2.5l-0.2,1.4c0,0.4-0.2,0.9-0.2,1.4v0.2v0.4
			c-0.2,1.3-1.4,2.2-3.6,2.5c-1.6,0.2-3.2,0.2-4.8,0c-0.9-0.2-1.8-0.5-2.5-1.1c-0.4-1.3-0.4-3.1,0-5.7c0.4-2.2,0.9-5.4,1.8-9.5
			c0.9-4.1,1.4-7.4,1.8-9.5c0.5-3.2,0.5-6.1,0.2-8.4l-0.4-2.7c0.2-1.4,1.4-2.3,3.6-2.7c1.6-0.4,3.2-0.4,5,0c1.3,0.2,2,0.4,2.2,0.5
			c0.2,0.2,0.4,0.7,0.5,1.6c0.2,0.9,0.5,1.4,0.9,1.6c1.1-0.9,2.7-1.4,4.7-1.8c2-0.4,3.6-0.5,5.2-0.2c3.1,0.4,4.8,2,5.4,4.7
			c0.2,1.3,0.2,2.9,0,4.8c-0.2,1.1-0.5,2.7-1.1,4.8c-0.5,2.2-0.9,3.8-1.1,4.8c-0.2,1.3-0.2,2.5-0.2,3.8
			C410,262.4,410.5,263.6,410.2,265.2L410.2,265.2z M439.8,273.5c-0.7,5-2.3,8.3-5,9.7c-0.7,0.4-1.4,0.5-2.3,0.4
			c-1.3-0.2-2-0.4-2.5-0.5c-0.5-0.2-1.1-0.5-1.6-1.4c-0.5-0.7-0.9-1.1-1.1-1.3c-0.4,0-0.9,0.4-2,0.9c-1.4,0.7-3.4,0.9-5.9,0.5
			c-2.3-0.4-4.1-2-5.2-4.7c-0.9-2.2-1.4-4.5-1.3-7.4c0-1.8,0.2-4.5,0.7-8.1c1.1-7.7,3.8-13.5,8.1-17.4c1.6-1.4,3.8-2.2,6.5-1.6
			c1.1,0.2,2.3,0.5,3.6,1.1c0.7-0.4,1.1-0.9,1.3-1.6c0.2-0.9,0-2-0.4-3.4c0-0.2-0.4-0.7-0.7-1.6c-0.4-0.5-0.4-1.3-0.4-1.6
			s0.2-0.7,0.5-1.1c1.3-0.5,2.9-1.1,5-1.4c2.2-0.4,3.9-0.4,5.2-0.2c0.5,0,0.9,0.2,1.3,0.4c0.2,0.2,0.4,0.5,0.7,1.1
			c0.2,0.4,0.2,1.4-0.2,3.6c-0.4,2.9-1.1,7-2.3,12.6c-1.1,5.6-1.8,9.9-2.3,12.6c-0.2,1.6-0.4,2.5-0.4,2.7c0,0.7,0.5,1.6,1.3,2.5
			L439.8,273.5L439.8,273.5z M429.2,263.6c0.2-1.6,0.2-3.2,0-4.8c-0.4-2.2-1.1-3.4-2.3-3.6c-0.7-0.2-1.4,0.2-2,1.1
			c-0.5,0.7-0.7,1.4-0.9,2.3c-0.2,1.4-0.4,2.7-0.4,4.3c0,0,0,0.4,0.2,1.1c0.4,2.2,1.3,3.4,2.7,3.6
			C427.9,266.7,428.8,265.6,429.2,263.6"/>
		<path fill="#86252D" d="M294.4,70.2c-1.3,0.5-10.8,3.8-23.3,4.1c-12.6,0.2-30.9-3.2-42.7,5.4c-11.8,8.4-21.2,29.8-18.8,55.3
			c2.3,25.5,21.2,43.4,27.5,57.6c6.3,14.2,20.8,23.2,20.8,23.2s5,9.5,15.6,7c10.6-2.5,9.2-5,14.2-5c5-0.2,9.9,3.6,16,1.4
			c6.1-2.2,8.8-3.8,8.8-3.8s5,3.4,9.2,3.4c4.1,0,11.7-1.1,16.9-10.1c2.2-3.6,5-9.3,7.9-16.2c-0.9-0.4-4.7-1.6-7.2-4.1
			c-3.1-3.1-2.7-10.6-2.7-10.6s-2.9-1.8-5.6-5.6c-2.7-3.9-2.3-9.3-2.3-9.3s-2-2.2-2.7-7.9c-0.7-5.6,1.3-12.4,1.3-12.4
			s-1.1-3.1-0.9-7.5c0.4-4.3,5.2-10.4,5.2-10.4s-0.2-5.6,1.4-10.4c1.8-4.7,6.6-7.9,6.6-7.9s0.9-2.2,3.2-5.4
			c1.8-2.5,7.7-5.7,10.6-7.2c-6.3-12-16-21.4-25.7-24.4C315.1,65.1,308.4,66,294.4,70.2"/>
		<path fill="#7C272B" d="M217.8,124.9c0,0,1.8-10.4,10-2.5c8.3,7.9,23.9,7.4,46.5,4.7c20.5-2.3,33.9-12.9,52.4,16.3
			c-0.5,2.2-1.6,7.2-1.1,11.5c0.7,5.6,2.7,7.9,2.7,7.9s-0.4,5.6,2.3,9.3c2.7,3.8,5.6,5.6,5.6,5.6s-0.4,7.5,2.7,10.6
			c2.5,2.7,6.3,3.9,7.2,4.1c-2.9,6.8-5.7,12.6-7.9,16.2c-5.2,9-12.6,10-16.9,10c-4.1,0-9.2-3.4-9.2-3.4s-2.9,1.8-8.8,3.8
			c-6.1,2.2-10.9-1.6-16-1.4c-5,0.2-3.8,2.7-14.2,5c-10.6,2.5-15.6-7-15.6-7s-14.5-9-20.8-23.2c-3.6-8.3-11.7-17.9-18.1-29.8
			C217.6,150.2,215.1,137.5,217.8,124.9"/>
		<path fill="#9F1A29" d="M224.3,108.2c-4.1-4.5-6.1-10.2-7-15.4c3.1-5.7,7-10.2,11.1-13.1c11.8-8.4,30.2-5,42.7-5.4
			c2.9,0,5.7-0.4,8.3-0.5h0.2h0.2l0,0h0.2l0,0h0.2h0.2l0,0h0.4l0,0l0,0h0.2l0,0h0.2h0.2l0,0h0.2l0,0h0.2h0.2l0,0h0.2h0.2l0,0h0.2
			l0,0h0.2h0.2l0,0h0.2h0.2l0,0h0.2h0.2l0,0h0.2l0,0h0.2h0.2l0,0h0.2h0.2h0.2l0,0h0.2h0.2l0,0h0.2h0.2l0,0c4.7-0.9,7.7-2.2,8.4-2.3
			c14.2-4.1,20.6-5.2,33.4-1.1c9.7,3.1,19.4,12.4,25.7,24.4c-2.9,1.4-9,4.7-10.6,7.2c-2.3,3.2-3.2,5.4-3.2,5.4s-5,3.2-6.6,7.9
			c-1.8,4.7-1.4,10.4-1.4,10.4s-5,6.1-5.2,10.4l0,0c-6.5-25.1-23.5-23.3-43.4-19.9C265.9,117.9,237.7,122.8,224.3,108.2"/>
		<path fill="#A71B29" d="M227.8,79.9c-4.8,8.1-3.1,18.7,3.4,24c10,8.3,27.3,10.6,47.9,6.1c28.7-6.3,42.7-5,56,0.5
			c2.2-2.7,4.7-4.3,4.7-4.3s0.9-2.2,3.2-5.4c1.8-2.5,7.7-5.7,10.6-7.2c-6.3-12-16-21.4-25.7-24.4c-12.7-4.1-19.4-3.1-33.4,1.1
			c-0.7,0.2-3.8,1.4-8.4,2.3l0,0H286h-0.2l0,0h-0.2h-0.2l0,0h-0.2h-0.2h-0.2l0,0h-0.2h-0.2l0,0h-0.2l0,0h-0.2H284l0,0h-0.2h-0.2l0,0
			h-0.2h-0.2l0,0h-0.2l0,0h-0.2h-0.2l0,0h-0.2h-0.2l0,0h-0.2l0,0H282h-0.2l0,0h-0.2l0,0l0,0h-0.4l0,0h-0.2H281l0,0h-0.2l0,0h-0.2
			h-0.2c-2.5,0.4-5.2,0.5-8.3,0.5c-12.6,0.2-30.9-3.2-42.7,5.4C228.2,79.7,228,79.9,227.8,79.9"/>
		<path fill="#722B2D" d="M322.8,75c-2.3-2.5-7.2-6.5-13.8-5.6c-9.3,1.4-16,5.7-25.1,7.5c-9.2,1.8-14.2,0.9-20.3,0.4
			c-6.1-0.5-10,0.4-13.3,1.4c-0.5,0.2-1.1,0.5-1.4,0.7l0,0l0,0l0,0l0,0l0,0l0,0l0,0l0,0l0,0l0,0l0,0l0,0l0,0l0,0l0,0l0,0l0,0l0,0
			l0,0l0,0l0,0l0,0l0,0l0,0l0,0l0,0l0,0l0,0l0,0l0,0l0,0h0.2l0,0l0,0l0,0l0,0l0,0l0,0l0,0l0,0l0,0l0,0l0,0l0,0l0,0l0,0l0,0l0,0l0,0
			l0,0l0,0l0,0l0,0l0,0l0,0h0.2l0,0l0,0h0.2l0,0l0,0l0,0h0.2l0,0l0,0h0.2l0,0l0,0l0,0h0.2l0,0l0,0h0.2l0,0l0,0l0,0h0.2l0,0h0.2l0,0
			h0.2l0,0h0.2c3.1,1.1,19.2,5.6,32.5,3.2s17.6-5,21-7.5c3.4-2.5,8.8-2.5,8.8-2.5l0,0l0,0l0,0l0,0l0,0l0,0l0,0l0,0l0,0l0,0l0,0l0,0
			l0,0l0,0l0,0l0,0l0,0l0,0l0,0h0.2l0,0l0,0l0,0l0,0h0.2l0,0l0,0h0.2h0.2h0.2l0,0l0,0h0.2l0,0l0,0h0.2l0,0l0,0h0.2l0,0h0.2h0.2l0,0
			h0.2l0,0l0,0h0.2l0,0l0,0h0.2l0,0l0,0h0.2l0,0l0,0h0.2l0,0h0.2h0.2h0.2h0.2l0,0h0.2h0.2l0,0h0.2l0,0l0,0h0.2l0,0l0,0h0.2h0.2h0.2
			l0,0h0.2h0.2h0.2l0,0h0.2h0.2c0.2,0,0.2,0,0.4,0.2h0.2h0.2h0.2h0.2L322.8,75L322.8,75L322.8,75L322.8,75z"/>
		<path fill="#D38787" d="M266.8,80c-3.4-0.9-9.5-2.7-12.9-2.7c-3.4,0-10.2,2.3-10.2,2.3s7-0.7,10,0.4c3.1,1.1,19.2,5.6,32.5,3.2
			s17.8-5,21.2-7.5c3.4-2.5,10.2-2.7,10.2-2.7c-5.6-2.5-15.8,3.9-28.2,6.8C280.8,82,270.2,81.1,266.8,80"/>
		<path fill="#5D413A" d="M282.6,81.1c0.7-2.5,2-7.7,2.5-10.9c0.7-4.5,0.2-7.2,0.2-7.2s2.5-1.8,4.8-1.1c2.5,0.7,2,3.1,2,3.1
			s-2.7,9-3.8,12.4c-0.5,1.6-0.9,2.7-1.3,3.4C285.6,80.8,284.2,80.9,282.6,81.1"/>
		<path fill="#40302C" d="M292.1,63.7c-0.7,0.7-1.6,1.4-2.3,2c-1.4,1.1-1.6,1.6-1.6,2.2c0,0.5-1.8,6.1-1.8,6.1l1.6-2.2
			c0,0-0.5,2-1.6,4.7c-0.7,1.8-1.3,3.6-1.4,4.5c0.7,0,1.4-0.2,2.3-0.2c0.4-0.7,0.7-1.8,1.3-3.4c1.1-3.4,3.8-12.4,3.8-12.4
			S292.3,64.2,292.1,63.7"/>
		<path fill="#7E655E" d="M290.7,63.4c0,0-1.4,0.9-2.3,1.4c-0.9,0.4-0.9,1.3-0.9,1.3s-0.7,2.7-1.1,4.8c-0.2,0.9-0.4,1.8-0.5,2.2
			c-0.2,1.1-2,6.8-2.5,8.1c-0.2,0-0.5,0-0.7,0c0.7-2.5,2-7.7,2.5-10.9c0.7-4.5,0.2-7.2,0.2-7.2s2.5-1.8,4.8-1.1
			c0.7,0.2,1.3,0.5,1.4,1.1C291,63,290.7,63.4,290.7,63.4"/>
		<path fill="#EED1A0" d="M353.3,93.7l0.5,0.2c0,0-5.4,8.8-6.1,11.3c-0.7,2.5-7.9,17.9-7.4,21.4c0.5,3.6,0.7,3.6-0.7,5.4
			c-1.3,1.8-3.1,2.2-3.6,6.1c-0.5,3.9-1.3,5.4-1.1,8.4c0.2,3.1-2,6.6,0,11.3c2,4.7,5,10.9,5.6,14.7s-0.5,3.1,0.4,6.1
			c0.9,3.1-0.4,3.1,2,5.7s3.8,7.9,3.8,7.9s-0.2,0.2-0.4,0.4l0.2-0.2c-0.9-0.4-4.7-1.6-7.2-4.1c-3.1-3.1-2.7-10.6-2.7-10.6
			s-2.9-1.8-5.6-5.6c-2.7-3.9-2.3-9.3-2.3-9.3s-2-2.2-2.7-7.9c-0.7-5.6,1.3-12.4,1.3-12.4s-1.1-3.1-0.9-7.5
			c0.4-4.3,5.2-10.4,5.2-10.4s-0.2-5.6,1.4-10.4c1.8-4.7,6.6-7.9,6.6-7.9s0.9-2.2,3.2-5.4C344.5,98.3,350.2,95.3,353.3,93.7"/>
		<path fill="#B31B2A" d="M250.6,79.7c-4.1,0.9-9,2.5-11.1,4.5c-4.5,4.1-7.2,11.5-3.1,17.6c4.1,6.1,27.3,10.6,51.7,4.1
			c24.6-6.5,34.1-12.2,32.7-19.4c-1.3-5.9-6.5-9.5-15.3-9.2c-3.2,2.2-8.3,4.1-19.2,6.1c-13.3,2.3-29.4-2-32.5-3.2
			C253.1,79.9,251.9,79.7,250.6,79.7"/>
		<path fill="#722B2D" d="M218.2,91.3c-5.9,21.7-1.4,43.6,7.2,63.9c7,16.3,18.3,37.7,31.6,48.6c5.4,4.5,9.2,5.9,13.3,5.7
			c3.9,0,8.3-1.6,14.5-3.2c11.1-2.9,12.7,3.4,21,1.3c8.3-2.2,4.3,0,10-3.4c5.7-3.4,9.3-5.2,15.3-10.2c3.1-2.7,4.8-7.2,5.9-10.9
			c0.4,2,1.1,4.1,2.3,5.4c2.5,2.7,6.3,3.9,7.2,4.1c-2.9,6.8-5.7,12.6-7.9,16.2c-5.2,9-12.6,10.1-16.9,10.1c-4.1,0-9.2-3.4-9.2-3.4
			s-2.9,1.8-8.8,3.8c-6.1,2.2-10.9-1.6-16-1.4c-5,0.2-3.8,2.7-14.2,5c-4.8,1.1-8.4-0.2-10.9-2l-0.2-0.2l0,0l-0.2-0.2l0,0l-0.2-0.2
			l0,0l-0.2-0.2l0,0l-0.2-0.2l0,0l0,0l-0.2-0.2l0,0l0,0l0,0l-0.2-0.2l0,0l-0.2-0.2l0,0l-0.2-0.2l0,0l-0.2-0.2l0,0l-0.2-0.2l0,0l0,0
			l-0.2-0.2l0,0l-0.2-0.2l0,0l-0.2-0.2l0,0L260,218l0,0l-0.2-0.2l0,0l0,0v-0.2l0,0l0,0l-0.2-0.2l0,0l0,0l-0.2-0.2l0,0l0,0v-0.2l0,0
			l0,0l0,0l0,0l0,0l0,0l0,0l0,0V217l0,0l0,0l0,0l0,0l0,0l0,0l0,0l0,0l0,0l0,0l0,0l0,0l0,0l0,0l0,0l0,0l0,0l0,0l0,0l0,0l0,0l0,0l0,0
			l0,0l0,0l0,0l0,0l0,0l0,0l0,0l0,0l0,0l0,0l0,0l0,0l0,0l0,0l0,0l0,0l0,0l0,0l0,0l0,0l0,0l0,0l0,0l0,0l0,0h-0.2l0,0l0,0h-0.2l0,0
			h-0.2l0,0h-0.2l0,0h-0.2h-0.2l0,0l-0.2-0.2l0,0l-0.2-0.2l0,0l-0.2-0.2l-0.2-0.2l0,0l-0.2-0.2l0,0l-0.2-0.2l0,0l-0.2-0.2l0,0
			l-0.2-0.2l-0.2-0.2l0,0l-0.2-0.2l0,0l-0.2-0.2l0,0c-0.2-0.2-0.5-0.4-0.7-0.5l0,0l-0.2-0.2l-0.2-0.2l-0.2-0.2l0,0
			c-0.4-0.2-0.5-0.4-0.9-0.7l0,0L254,213l-0.2-0.2l-0.2-0.2l0,0c-0.4-0.4-0.9-0.7-1.3-1.1l0,0l-0.4-0.2l0,0l-0.4-0.4l0,0
			c-0.4-0.4-0.7-0.5-1.1-0.9l0,0l-0.4-0.4l0,0l-0.4-0.4l0,0l-0.4-0.4c-0.2-0.2-0.2-0.2-0.4-0.4l-0.2-0.2l-0.2-0.2l-0.2-0.4l-0.2-0.2
			l-0.2-0.4l-0.2-0.2c-0.4-0.4-0.5-0.7-0.9-1.1l0,0l-0.2-0.4l-0.2-0.2c0-0.2-0.2-0.2-0.2-0.4l-0.2-0.2c0-0.2-0.2-0.2-0.2-0.4
			l-0.2-0.2c-0.2-0.2-0.4-0.4-0.5-0.7v-0.2c0-0.2-0.2-0.2-0.2-0.4l-0.2-0.2c0-0.2-0.2-0.2-0.2-0.4l-0.2-0.2c0-0.2-0.2-0.2-0.2-0.4
			l-0.2-0.2c-0.2-0.2-0.4-0.5-0.5-0.7l0,0c-1.6-2.3-3.1-4.8-4.3-7.4c-6.3-14.2-25.1-32.1-27.5-57.6
			C207.9,117.5,211.7,102.1,218.2,91.3"/>
		<path fill="#D38787" d="M261.2,86.3c0,0,9.9,2.3,19.4,0.7c9.3-1.6,13.8-1.8,15.8,1.4c2,3.2-4.7,11.5-22.4,11.3
			C256.2,99.6,247.2,87.2,261.2,86.3"/>
		<path fill="#622D2A" d="M344,197.8c-3.2-2.3-7.2-4.1-10.8-2.9c-7.4,2.5-11.3,12.4-17.2,13.6c-5.9,1.3-8.1-0.7-10.8,2.5
			c-2.7,3.2-2.2,5-9.5,2.7c-7.4-2.3-6.1-5-12.9-1.8s-8.6,4.1-14.4,4.7c-4.1,0.4-7.4,1.1-8.8,1.4c2.3,2.7,6.8,6.1,13.6,4.5
			c10.6-2.5,9.2-5,14.2-5c5-0.2,9.9,3.6,16,1.4c6.1-2.2,8.8-3.8,8.8-3.8s5,3.4,9.2,3.4c4.1,0,11.7-1.1,16.9-10
			C340,206,341.8,202.3,344,197.8"/>
		<path fill="#C79D5E" d="M340.5,129c-1.8,1.3-5.7,4.3-5.9,7.5c-0.2,4.1-1.3,7-1.3,7l-2.2-3.6c0,0-2.7,4.7-2,9.2
			c0.9,4.7,2.7,7.4,2.7,7.4l-2.7-1.8c0,0,1.1,5.2-0.5,7.5c-0.2,0.2-0.2,0.4-0.4,0.4c0-0.2,0-0.4,0-0.4s-2-2.2-2.7-7.9
			c-0.7-5.6,1.3-12.4,1.3-12.4s-1.1-3.1-0.9-7.5c0.4-4.3,5.2-10.4,5.2-10.4s-0.2-5.6,1.4-10.4c1.8-4.7,6.6-7.9,6.6-7.9
			s0.9-2.2,3.2-5.4c1.6-2.3,7.5-5.6,10.4-7l0.5,0.2c0,0-5.4,8.8-6.1,11.3s-7.9,17.9-7.4,21.4C340.4,127.6,340.5,128.5,340.5,129"/>
		<path fill="#599E3C" d="M284.9,70c0,0-5.6-14-12.4-20.3s-21.9-7.4-30.1-7.4c-8.3,0-12-1.1-12-1.1S230.7,54.2,242,63
			C253.1,72,276.5,74.5,284.9,70"/>
		<path fill="#458E3C" d="M284.6,69.1c-3.2-2.5-7.4-5.6-11.3-7.7c-8.1-4.1-19.6-9.5-23.9-11.5c-4.3-2-9.5-4.1-9.5-4.1
			s11.8,6.8,15.6,8.4c3.6,1.6,14.9,7.4,18.7,9.3c2.9,1.6,7.5,5.2,9.7,7c0.5-0.2,0.9-0.4,1.3-0.5C284.9,70,284.9,69.6,284.6,69.1"/>
		<path fill="#458E3C" d="M230.2,41.8c1.4,3.8,5,11.1,11.1,16.9c8.8,8.1,27.6,11.1,32.8,11.1c3.8,0,8.4-0.2,10.8,0V70
			c-8.4,4.5-31.8,2-43.1-6.8C232,55.1,230.5,44.3,230.2,41.8"/>
		<path fill="#E8BB67" d="M373.6,169.1c0,0-6.3,1.4-6.8,8.3c-1.4,19.6,12,25.3,25.3,30.5c16,6.1,38.2,7.2,71.2,7.9
			c12.4,0.2,21.9,0,29.4-1.3c17.9-2.9,27.1-6.6,27.5-30.1c0.2-8.8-14.5-5.9-14.5-5.9S410.9,185.4,373.6,169.1"/>
		<path fill="#EED1A0" d="M379.3,171.4c0.5,1.6,1.8,3.2,4.3,4.5c10.2,5.4,20.3,8.6,20.3,8.6s-11.5-2-14.9,1.3c-3.6,3.2,0,8.1,0,8.1
			s4.7,4.1,5.4,6.5c0.9,2.5,0.4,2.9,5,7c1.3,1.1,2.5,2.5,3.9,3.8c-3.9-0.9-7.7-2-11.1-3.2c-13.5-5-26.7-10.8-25.3-30.5
			c0.5-6.8,6.8-8.3,6.8-8.3C375.4,170,377.3,170.7,379.3,171.4L379.3,171.4z M482.5,215.5c3.8-1.8,7-3.6,8.3-4.7
			c3.9-3.6,4.1-5.6,7.2-7.9c3.1-2.3,4.5-4.7,4.1-7.5c-0.4-2.9-14.2-5.6-3.8-12.7c2.5-1.8,5.4-3.2,8.4-4.7c3.4-0.5,13.5-1.1,13.3,6.1
			c-0.2,23.3-9.5,27.3-27.5,30.1C489.7,215,486.3,215.4,482.5,215.5"/>
		<path fill="#913628" d="M375.9,152.2c0,0-6.6,0.4-6.8,8.4c-0.2,8.1-3.6,10.1,3.1,16.3c6.6,6.3,35.4,8.8,73,11.8
			c37.9,3.1,66.6,0.2,72-4.1s1.3-21,1.3-21S404.3,147.9,375.9,152.2"/>
		<path fill="#BF7E47" d="M368,168.7c2.3,3.1,4.3,5,5.6,4.5c1.4-0.7,0.5-2.9,2.9-3.2c2.2-0.4,3.1,0.7,4.1-0.5
			c1.1-1.1,3.9-2.7,2.3-3.4c-1.6-0.7-6.8-4.1-6.8-4.1l-5.4-2.9c0,0-0.5-0.7-1.3-1.6c-0.4,0.9-0.5,2.2-0.5,3.6
			C368.9,164.4,368.2,166.7,368,168.7L368,168.7z M488.8,159.9l11.1,7.2c0,0,0.5,3.6-0.7,4.8c-1.3,1.1-7.2,3.2-8.6,3.2
			s-4.5-2.3-5-0.2c-0.5,2.2-2,4.3-2,4.3l-4.5-1.3c0,0-1.1-3.6-3.9-2.5c-2.9,1.1-5.4,1.4-7,1.8s-5.7,0.2-5.7,0.2s-2.7,1.8-1.4,3.2
			c1.4,1.4,3.6,3.8,6.8,3.1s4.7-0.9,8.4-1.1c3.8,0,7-0.5,10.2-1.4c3.2-0.7,3.9-2.9,7.5-1.3c3.6,1.6,5.6,4.1,9,2.5
			c3.4-1.4,2-2.7,6.1-1.8c2.5,0.5,5.9,2.7,8.6,3.8c4.5-5,0.7-20.5,0.7-20.5S506.2,162.1,488.8,159.9"/>
		<path fill="#742C29" d="M518.4,183.2c-3.9,0-8.8,0-12.9,0.2c-9.2,0.5-8.4,2.5-14.5,2.3c-5.9,0-8.6-0.2-12.2-0.4s-5.9-1.1-7.4-0.2
			c-1.4,0.9-3.8,1.8-6.6,1.8c-2.9,0.2-5,1.3-8.3,0.4c-3.1-0.9-6.8-3.1-10.4-3.2c-3.6-0.2-4.5-0.9-7.9,0.2s-6.8,1.8-9.2,0.7
			s-7-3.9-7-3.9s9.5-6.3,14.2-11.8c4.8-5.6,16.9-5.9,5.4-6.3c-11.5-0.4-27.5-3.2-29.1-0.7c-1.6,2.5-3.4,9.7-2.5,12.6s2,9-3.1,6.8
			c-4.8-2.2-2.2-4.1-9-3.8c-6.8,0.4-8.4,0.7-14.9,0.5c-6.5-0.4-7.5-1.8-11.1-2.9c-0.7-0.2-1.8-1.1-3.2-2.2c0.5,1.1,1.6,2.2,2.9,3.4
			c6.6,6.3,35.4,8.8,73,11.8c37.9,3.1,66.6,0.2,72-4.1C517.7,184.5,518,184,518.4,183.2"/>
		<path fill="#4D2F29" d="M370.9,150.7c0,0,3.2,7.2,7.7,9.7c4.5,2.7,4.5,2.2,11.5,2c7-0.2,7.2-0.9,11.7,1.1s4.5,0.7,8.1,0.9
			c3.6,0.2,15.4,3.2,21,1.1c5.6-2.2,10.8-2.9,18.3-1.1c7.5,1.8,16,3.2,21.4,3.4c5.6,0.2,14.9,4.8,21.9,3.4c7-1.3,12.4-8.4,12.4-8.4
			s-17-9.7-29.8-10c-12.7-0.4-98.5-11.3-98.5-11.3l-5,8.4L370.9,150.7L370.9,150.7z"/>
		<path fill="#EED1A0" d="M458.3,160.1c0,0-17,5.9-24.9,10.9c-7.9,5.2-15.3,12-15.3,12s-8.3-7.2-14-14.9
			c-5.6-7.7-15.1-13.6-8.4-15.1C402.5,151.8,458.3,160.1,458.3,160.1"/>
		<path fill="#BBAD27" d="M378.4,151.6c0,0,3.6,5.2,7.9,7.2c4.3,2,3.4-4.8,7.7-2.3c4.5,2.7,7.5,3.4,9.7,3.6c2.2,0.2,2.2-1.6,7.2,0.2
			c5,1.6,1.3,7.2,8.8,3.2c7.4-3.9,5.4-6.5,10-5c4.7,1.4,3.1,0,5.9,2.7c2.7,2.7,0.2,4.5,7,3.2c6.8-1.4,6.8-2.5,8.6-1.1
			c1.8,1.6,0.2,2,4.8,3.8c4.7,2,4.1,2.7,9.7,2.9c5.6,0.4,8.8,1.4,8.8,1.4s0.2,7.4,7.5,2.7c7.4-4.7,11.8-10.4,13.5-5
			c1.6,5.4,3.4,8.6,6.5,6.3s10.4-2.2,14.5-1.3c3.9,0.9,4.8-0.7,7.2-4.7c2.3-3.9-2.3-10.2-9-11.7c-6.6-1.4-54.7-17.6-60.1-17.6
			c-5.2,0-33.7-1.6-37.9-0.4c-4.1,1.3-47.6,6.8-47.6,6.8L378.4,151.6L378.4,151.6z"/>
		<path fill="#C3C22C" d="M370.5,135.1l-15.8,10.8c0,0,4.3-0.9,6.8,3.8c2.3,4.7,6.3,4.8,8.6,3.6c2.5-1.3,4.1-1.3,7,0.4
			c2.9,1.6,5.7,5.7,8.8,1.8c3.1-3.9,5-6.3,8.8-5c3.8,1.1,7.5,3.8,7.5,3.8s3.6,3.2,5.4,2.5c1.8-0.9,3.9-2,7.7-2
			c3.8,0,10.4,2.2,14-1.3c3.6-3.4,5.6-6.6,9.2-2.5c3.6,4.3,0.2,6.3,8.1,6.6s11.3-6.1,19.6,0.9c8.3,7.2,15.1,9.7,20.3,7.7
			c5.2-2,2.5-7.5,9.9-2.2c7.4,5.4,3.8,6.5,9.2,5.7s4.8-0.5,6.3-1.1c1.4-0.7,5.6-5,7.5-5.6c2-0.5,7.5-2.7,7.5-2.7l0.5-4.5
			c0,0-26-5.6-35-6.1c-8.8-0.4-54.4-11.3-62.1-10.4C422.6,139.8,370.5,135.1,370.5,135.1"/>
		<path fill="#AEB02B" d="M372.7,138.2c0,0-7.9,5.4-6.5,8.1c1.6,2.7,1.3,4.3,5.4,1.6c4.1-2.7,9.3-7.9,9.3-7.9l5.2,1.6l-5.6,9.2
			c0,0,2.7,4.5,5.2,1.4s3.1-3.9,3.1-3.9l3.8-3.2c0,0,1.6,0,4.5,0.2c2.9,0.2,4.3,3.6,4.3,3.6s1.3,2.5,2.7,3.2
			c1.4,0.7,2.3,4.5,3.6,0.2c1.3-4.3-1.1-6.5,3.9-5.6c5,0.9,6.1,3.2,8.6,1.1c2.5-2-1.6-2.9,3.9-2.9s6.5,0,8.4,0.2
			c2,0.2,7,0.4,8.4,2.9c1.6,2.5,2.2,4.7,2.2,4.7s2.9,1.3,6.3,0.7c3.4-0.5,4.1-1.3,4.1-1.3l-0.5-3.6l9,1.8l9.5,8.1
			c0,0,7.5,6.1,11.8,3.9c4.1-2.2,4.1-2.2,4.1-2.2l-5-5.9l13.6,5.2l5.7,6.3c0,0,0,1.4,1.4,1.4s5.4,2.3,7.5-1.1
			c2.2-3.4,4.5-3.8,2.5-5.9c-2-2-9.7-7-9.7-7s-46.5-20.1-49-20.1C452.4,133.2,379.5,132.8,372.7,138.2"/>
		<path fill="#FBFAEA" d="M377.7,133.3c0,0-7.7,3.9-1.4,5.7c6.1,1.8,10.6-0.4,14.4,2s0.9,2.7,8.6,1.4c7.7-1.3,2.9-3.1,12-0.5
			c9.2,2.3,9.5-1.6,13.8,0.4c4.5,2.2,1.1,4.1,2.5,8.4c1.4,4.3,2.7-0.2,4.3-4.1s5.9-4.3,9-1.8c3.1,2.5,0.7-1.6,5-0.7
			c4.3,0.9,4.7,2.9,9.2,4.5c4.5,1.6,8.1,1.1,19.7,4.8c11.5,3.8,6.3,3.9,20.5,3.4s18.5,0.4,20.3-4.3c2-4.7,0.5-14.4-3.6-18.5
			c-4.1-4.1-48.8-12-55.1-12.7s-78.2,11.1-78.2,11.1L377.7,133.3L377.7,133.3z"/>
		<path fill="#BF0624" d="M513.4,140l8.8,4.1l-2.5,10.4c0,0-16.9,0.7-48.1-5.7c-27.5-5.7-48.8-20.1-53.7-23.5
			c25.1,1.4,56.4,4.8,93.5,11.1L513.4,140L513.4,140z"/>
		<path fill="#B50226" d="M467.2,129.9l-4.3,16.7c-23.3-6.6-40.7-18.3-45-21.4C432.3,126.2,448.8,127.6,467.2,129.9"/>
		<path fill="#C54634" d="M485,136.4c0,0-2.9,5.6-4.8,12.9c-0.2,0.4-0.2,0.7-0.4,1.1c26,4.8,39.8,4.1,39.8,4.1l2.5-10.4l-8.8-4.1
			l-1.1-2C499.5,137.3,485,136.4,485,136.4"/>
		<path fill="#E2AA91" d="M499.2,137.3l2.7,3.8l-1.6,12.6c6.5,0.7,11.3,0.9,14.5,1.1l3.8-12l-5.2-2.5l-1.1-2
			C508,137.8,503.3,137.5,499.2,137.3"/>
		<path fill="#EED6C4" d="M509.1,137.8l4.7,5.2l-2.3,11.3c-1.4,0-3.1-0.2-4.8-0.4l1.4-11.8l-4.5-4.7
			C505.3,137.6,507.3,137.8,509.1,137.8"/>
		<path fill="#A11927" d="M508.9,131.5c4.3,2.5,16.7,12.6,12.4,13.5c-4.5,0.9-35.4-3.8-54.2-7.7s-26.9-12-31.9-14.7
			C456.8,124.5,479.6,126.5,508.9,131.5"/>
		<path fill="#BF0624" d="M378.2,123.8L370,126l0.5,9.3c0,0,14.5,3.4,42.5,2.5c24.6-0.7,45.4-9.7,50.3-11.8
			c-21.9-2.7-49.5-4.7-82.7-5L378.2,123.8L378.2,123.8z"/>
		<path fill="#B50226" d="M419.9,122.4l1.1,15.1c21.2-2.2,38-9.5,42.4-11.3C450.6,124.7,436.2,123.3,419.9,122.4"/>
		<path fill="#C54634" d="M403.4,125.3c0,0,1.6,5.2,2.2,12c0,0.4,0,0.7,0,0.9c-23.2,0-35.2-2.7-35.2-2.7l-0.5-9.3l8.3-2.2l1.3-1.4
			C390.6,123.8,403.4,125.3,403.4,125.3"/>
		<path fill="#E2AA91" d="M390.8,123.8l-2.9,2.7l-0.5,11.1c-5.7-0.4-10-0.9-12.7-1.4l-1.3-10.9l5-1.3l1.3-1.4
			C383.3,122.9,387.2,123.3,390.8,123.8"/>
		<path fill="#EED6C4" d="M382.4,122.8l-4.8,3.8l0.2,10.1c1.3,0.2,2.7,0.4,4.3,0.5l0.5-10.6l4.7-3.2
			C385.6,123.1,384,122.9,382.4,122.8"/>
		<path fill="#A11927" d="M379.5,121.1c-4.1,1.6-12,4.8-9,5.9c4.3,1.6,28.2,2.3,48.1,1.8c14-0.4,24-2.9,28.7-4.5
			C428.3,122.8,405.7,121.3,379.5,121.1"/>
		<path fill="#E8BB67" d="M366.9,122.9c0,0,8.6-26.7,24.6-35.7c16.2-9.2,74.3-5.7,107.7,4.1c33.4,10.1,30.9,49.9,30.9,49.9
			S476.4,123.1,366.9,122.9"/>
		<path fill="#EED1A0" d="M391.2,123.3c2.5-7.4,8.3-20.8,18.8-25.8c14.9-7,63.2-4.1,78.8-1.4c15.4,2.9,24.9,10.1,30.2,23.3
			c2.7,7,3.9,14.4,4.7,19.9c4.5,1.3,6.8,2,6.8,2s2.5-40-30.9-49.9c-33.4-10-91.5-13.3-107.7-4.1c-16.2,9.2-24.6,35.7-24.6,35.7
			C375.4,122.9,383.4,122.9,391.2,123.3"/>
		<path fill="#F4E2B3" d="M526.3,117.4c-5.7-8.6-13.8-18.1-22.6-21.2c-16.9-5.7-56.7-11.1-78.2-9c-21.5,2.2-27.6,5.4-33,13.8
			c-3.6,5.4-8.1,15.6-10.9,22.1c-4.8,0-9.7-0.2-14.7-0.2c0,0,8.6-26.7,24.6-35.7c16.2-9.2,74.3-5.7,107.7,4.1
			C514.6,95.8,522.3,106.8,526.3,117.4"/>
		<path fill="#D99133" d="M460.2,96.6c0.2-0.9,2.7-0.9,5.4-0.2c2.7,0.7,4.8,2,4.5,2.9c-0.2,0.9-2.7,0.9-5.4,0.2
			S460.1,97.4,460.2,96.6"/>
		<path fill="#D99133" d="M406.9,103.9c0-0.9,2.2-1.6,5-1.8c2.9-0.2,5.2,0.5,5.2,1.4c0,0.9-2.2,1.6-5,1.8
			C409.3,105.3,406.9,104.8,406.9,103.9"/>
		<path fill="#D99133" d="M479.4,95.1c0.4-0.7,2.7-0.5,5.4,0.5c2.7,1.1,4.5,2.7,4.1,3.4c-0.4,0.7-2.7,0.5-5.4-0.5
			S479.1,95.8,479.4,95.1"/>
		<path fill="#D99133" d="M445.9,90.8c0-0.9,2.3-1.6,5-1.6c2.9,0,5.2,0.7,5.2,1.6s-2.3,1.6-5,1.6C448.2,92.4,445.9,91.7,445.9,90.8"
			/>
		<path fill="#D99133" d="M424.4,104.6c0-0.9,2.3-1.6,5-1.6c2.9,0,5.2,0.7,5.2,1.6c0,0.9-2.3,1.6-5,1.6S424.4,105.3,424.4,104.6"/>
		<path fill="#D99133" d="M410.5,110.9c0.2-0.9,2.5-1.3,5.2-1.1c2.9,0.4,5,1.3,4.8,2.2c-0.2,0.9-2.5,1.3-5.2,1.1
			C412.7,112.7,410.4,111.8,410.5,110.9"/>
		<path fill="#D99133" d="M404.8,90.8c-0.2-0.9,2-2,4.7-2.7c2.7-0.5,5.2-0.4,5.4,0.5c0.2,0.9-2,2-4.7,2.7
			C407.3,91.9,405,91.7,404.8,90.8"/>
		<path fill="#D99133" d="M403.4,118.8c-0.2-0.9,2-2,4.7-2.7c2.7-0.5,5.2-0.4,5.4,0.5c0.2,0.9-2,2-4.7,2.7
			C405.9,119.9,403.5,119.7,403.4,118.8"/>
		<path fill="#D99133" d="M414.8,120.2c-0.2-0.9,2-2,4.7-2.7c2.7-0.5,5.2-0.4,5.4,0.5s-2,2-4.7,2.7C417.4,121.3,415,121,414.8,120.2
			"/>
		<path fill="#D99133" d="M384.5,114.9c-0.2-0.9,2-2,4.7-2.7c2.7-0.5,5.2-0.4,5.4,0.5s-2,2-4.7,2.7
			C387,115.9,384.7,115.6,384.5,114.9"/>
		<path fill="#D99133" d="M382,105c0.2-0.9,2.5-1.3,5.2-1.1c2.9,0.4,5,1.3,4.8,2.2c-0.2,0.9-2.5,1.3-5.2,1.1
			C384.2,106.8,382,105.9,382,105"/>
		<path fill="#D99133" d="M388.3,97.8c0-0.9,2.3-1.6,5-1.6c2.9,0,5.2,0.7,5.2,1.6s-2.3,1.6-5,1.6C390.4,99.4,388.3,98.7,388.3,97.8"
			/>
		<path fill="#D99133" d="M446.1,98.7c0.2-0.9-2-1.8-4.8-2.3c-2.9-0.4-5.2,0-5.2,0.9c0,0.9,2,1.8,4.8,2.3
			C443.7,100.1,445.9,99.6,446.1,98.7"/>
		<path fill="#D99133" d="M446.1,109.5c-0.2-0.9-2.5-1.1-5.4-0.5c-2.9,0.5-4.8,1.6-4.7,2.5s2.5,1.1,5.4,0.5
			C444.1,111.4,446.2,110.4,446.1,109.5"/>
		<path fill="#D99133" d="M467.1,114c0-0.9-2.3-1.6-5.2-1.4c-2.9,0-5,0.7-5,1.6s2.3,1.6,5.2,1.4C464.9,115.4,467.1,114.7,467.1,114"
			/>
		<path fill="#D99133" d="M458.3,99.4c0.2-0.9-1.8-2.2-4.5-3.1c-2.7-0.9-5-0.9-5.4,0c-0.2,0.9,1.6,2.2,4.5,3.1
			S458.1,100.3,458.3,99.4"/>
		<path fill="#D99133" d="M440.9,121.7c0.2-0.9-1.6-2.2-4.3-3.1c-2.7-0.9-5-0.9-5.4,0c-0.2,0.9,1.8,2.2,4.3,3.1
			C438.4,122.6,440.7,122.6,440.9,121.7"/>
		<path fill="#D99133" d="M455.4,117.5c0.2-0.9-1.8-2.2-4.3-3.1c-2.7-0.9-5-0.9-5.4,0c-0.2,0.9,1.8,2.2,4.5,3.1
			C452.7,118.4,455.2,118.4,455.4,117.5"/>
		<path fill="#D99133" d="M466.9,125.3c0.2-0.9-1.8-2.2-4.3-3.1c-2.7-0.9-5-0.9-5.4,0c-0.2,0.9,1.8,2.2,4.3,3.1
			C464.2,126.2,466.5,126.2,466.9,125.3"/>
		<path fill="#D99133" d="M479.1,116.1c0-0.9-2.3-1.6-5.2-1.4c-2.9,0-5,0.7-5,1.6c0,0.9,2.3,1.6,5.2,1.4
			C476.8,117.7,479.1,116.8,479.1,116.1"/>
		<path fill="#D99133" d="M465.5,108.8c0-0.9-2.2-1.8-4.8-2.2c-2.9-0.4-5.2,0.2-5.2,1.1c0,0.9,2.2,1.8,4.8,2.2
			C463.1,110,465.5,109.5,465.5,108.8"/>
		<path fill="#D99133" d="M417.4,94.6c0-0.9,2.3-1.6,5-1.6c2.7,0,5.2,0.7,5.2,1.6s-2.3,1.6-5,1.6S417.4,95.5,417.4,94.6"/>
		<path fill="#D99133" d="M426.9,88.3c0-0.9,2.3-1.6,5-1.6c2.9,0,5,0.7,5.2,1.6c0,0.9-2.3,1.6-5,1.6C429.2,89.7,426.9,89,426.9,88.3
			"/>
		<path fill="#D99133" d="M467.6,89.7c0.4-0.7,2.7-0.5,5.4,0.5c2.7,1.1,4.5,2.7,4.1,3.4c-0.4,0.7-2.7,0.5-5.4-0.5
			C469,92.1,467.2,90.6,467.6,89.7"/>
		<path fill="#D99133" d="M488.4,106.1c0.2-0.9,2.7-0.9,5.4-0.2c2.7,0.7,4.8,2,4.5,2.9c-0.2,0.9-2.7,0.9-5.4,0.2
			C490.2,108,488.2,106.8,488.4,106.1"/>
		<path fill="#D99133" d="M504.2,103.4c0.4-0.7,2.7-0.5,5.4,0.5c2.7,1.1,4.5,2.7,4.1,3.4c-0.4,0.7-2.7,0.5-5.4-0.5
			C505.8,105.7,503.9,104.1,504.2,103.4"/>
		<path fill="#D99133" d="M485.2,122c0-0.9-2.3-1.6-5.2-1.4c-2.9,0-5,0.7-5,1.6c0,0.9,2.3,1.6,5.2,1.4
			C483,123.7,485.2,122.9,485.2,122"/>
		<path fill="#D99133" d="M483.4,105.7c0.2-0.9-1.8-2.2-4.3-3.1c-2.7-0.9-5-0.9-5.4,0c-0.2,0.9,1.8,2.2,4.5,3.1
			C480.7,106.6,483,106.6,483.4,105.7"/>
		<path fill="#D99133" d="M499,122.8c0-0.9-2.3-1.6-5.2-1.4c-2.9,0-5,0.7-5,1.6c0,0.9,2.3,1.6,5.2,1.4
			C496.9,124.2,499,123.7,499,122.8"/>
		<path fill="#D99133" d="M492.7,114c0-0.9-2.2-1.8-4.8-2.2c-2.9-0.4-5.2,0.2-5.2,1.1c0,0.9,2.2,1.8,5,2.2
			C490.4,115.4,492.7,114.9,492.7,114"/>
		<path fill="#D99133" d="M492.6,96c0.4-0.7,2.7-0.5,5.4,0.5c2.7,1.1,4.5,2.7,4.1,3.4c-0.4,0.7-2.7,0.5-5.4-0.5
			C494,98.3,492.2,96.9,492.6,96"/>
		<path fill="#D99133" d="M513.7,117c0-0.9-2.3-1.6-5.2-1.4c-2.9,0-5,0.7-5,1.6c0,0.9,2.3,1.6,5.2,1.4
			C511.4,118.4,513.7,117.7,513.7,117"/>
		<path fill="#D99133" d="M517.5,125.4c-0.2-0.9-2.5-1.1-5.4-0.5c-2.7,0.5-4.8,1.6-4.7,2.5c0.2,0.9,2.5,1.1,5.4,0.5
			C515.7,127.4,517.7,126.3,517.5,125.4"/>
		<path fill="#FBF6D4" d="M460.4,95.3c0.2-0.9,2.7-0.9,5.4-0.2c2.7,0.7,4.8,2,4.5,2.9c-0.2,0.9-2.7,0.9-5.4,0.2
			C462.2,97.4,460.2,96.2,460.4,95.3"/>
		<path fill="#FBF6D4" d="M407.1,102.7c0-0.9,2.2-1.6,5-1.8c2.9-0.2,5.2,0.5,5.2,1.4c0,0.9-2.2,1.6-5,1.8
			C409.5,104.1,407.1,103.6,407.1,102.7"/>
		<path fill="#FBF6D4" d="M479.6,93.9c0.4-0.7,2.7-0.5,5.4,0.5c2.7,1.1,4.5,2.7,4.1,3.4c-0.4,0.7-2.7,0.5-5.4-0.5
			C481.1,96.2,479.3,94.6,479.6,93.9"/>
		<path fill="#FBF6D4" d="M446.1,89.6c0-0.9,2.3-1.6,5-1.6c2.7,0,5.2,0.7,5.2,1.6s-2.3,1.6-5,1.6C448.4,91.2,446.1,90.4,446.1,89.6"
			/>
		<path fill="#FBF6D4" d="M424.7,103.4c0-0.9,2.3-1.6,5-1.6c2.9,0,5.2,0.7,5.2,1.6c0,0.9-2.3,1.6-5,1.6
			C427.2,105,424.7,104.1,424.7,103.4"/>
		<path fill="#FBF6D4" d="M410.7,109.7c0.2-0.9,2.5-1.3,5.2-1.1c2.9,0.4,5,1.3,4.8,2.2c-0.2,0.9-2.5,1.3-5.2,1.1
			C412.9,111.4,410.7,110.5,410.7,109.7"/>
		<path fill="#FBF6D4" d="M405,89.6c-0.2-0.9,2-2,4.7-2.7c2.7-0.5,5.2-0.4,5.4,0.5c0.2,0.9-2,2-4.7,2.7
			C407.5,90.6,405.2,90.4,405,89.6"/>
		<path fill="#FBF6D4" d="M403.5,117.7c-0.2-0.9,2-2,4.7-2.7c2.7-0.5,5.2-0.4,5.4,0.5c0.2,0.9-2,2-4.7,2.7
			C406,118.6,403.7,118.4,403.5,117.7"/>
		<path fill="#FBF6D4" d="M415,119c-0.2-0.9,2-2,4.7-2.7c2.7-0.5,5.2-0.4,5.4,0.5c0.2,0.9-2,2-4.7,2.7
			C417.5,120.1,415.2,119.9,415,119"/>
		<path fill="#FBF6D4" d="M384.7,113.6c-0.2-0.9,2-2,4.7-2.7c2.7-0.5,5.2-0.4,5.4,0.5s-2,2-4.7,2.7
			C387.2,114.7,384.9,114.3,384.7,113.6"/>
		<path fill="#FBF6D4" d="M382.2,103.7c0.2-0.9,2.5-1.3,5.2-1.1c2.9,0.4,5,1.3,4.8,2.2s-2.5,1.3-5.2,1.1
			C384.3,105.5,382.2,104.6,382.2,103.7"/>
		<path fill="#FBF6D4" d="M388.5,96.6c0-0.9,2.3-1.6,5.2-1.6s5.2,0.7,5.2,1.6s-2.3,1.6-5,1.6C390.6,98.2,388.5,97.4,388.5,96.6"/>
		<path fill="#FBF6D4" d="M446.2,97.4c0.2-0.9-2-1.8-4.8-2.3c-2.9-0.4-5.2,0-5.2,0.9c0,0.9,2,1.8,4.8,2.3
			C443.7,98.7,446.1,98.3,446.2,97.4"/>
		<path fill="#FBF6D4" d="M446.2,108.2c-0.2-0.9-2.5-1.1-5.4-0.5c-2.7,0.5-4.8,1.6-4.7,2.5c0.2,0.9,2.5,1.1,5.4,0.5
			C444.3,110.2,446.4,109.1,446.2,108.2"/>
		<path fill="#FBF6D4" d="M467.2,112.7c0-0.9-2.3-1.6-5.2-1.4c-2.9,0-5,0.7-5,1.6c0,0.9,2.3,1.6,5.2,1.4
			C465.1,114.3,467.2,113.4,467.2,112.7"/>
		<path fill="#FBF6D4" d="M458.5,98.2c0.2-0.9-1.8-2.2-4.3-3.1c-2.5-0.9-5-0.9-5.4,0c-0.2,0.9,1.6,2.2,4.3,3.1
			C455.9,99.1,458.3,99.1,458.5,98.2"/>
		<path fill="#FBF6D4" d="M441,120.4c0.2-0.9-1.8-2.2-4.3-3.1c-2.7-0.9-5-0.9-5.4,0c-0.2,0.9,1.8,2.2,4.3,3.1
			C438.5,121.3,440.9,121.3,441,120.4"/>
		<path fill="#FBF6D4" d="M455.6,116.3c0.2-0.9-1.6-2.2-4.3-3.1c-2.7-0.9-5-0.9-5.4,0c-0.2,0.9,1.6,2.2,4.3,3.1
			C452.9,117.2,455.4,117.2,455.6,116.3"/>
		<path fill="#FBF6D4" d="M467.1,124.2c0.2-0.9-1.6-2.2-4.3-3.1c-2.7-0.9-5-0.9-5.4,0c-0.2,0.9,1.6,2.2,4.3,3.1
			C464.4,124.9,466.7,124.9,467.1,124.2"/>
		<path fill="#FBF6D4" d="M479.3,114.9c0-0.9-2.3-1.6-5.2-1.4c-2.9,0-5,0.7-5,1.6s2.3,1.6,5.2,1.4
			C476.9,116.5,479.3,115.6,479.3,114.9"/>
		<path fill="#FBF6D4" d="M465.6,107.5c0-0.9-2.2-1.8-5-2.2c-2.9-0.4-5.2,0.2-5.2,1.1s2.2,1.8,4.8,2.2
			C463.3,108.8,465.6,108.2,465.6,107.5"/>
		<path fill="#FBF6D4" d="M417.5,93.3c0-0.9,2.3-1.6,5-1.6c2.9,0,5.2,0.7,5.2,1.6c0,0.9-2.3,1.6-5,1.6
			C419.9,94.9,417.5,94.2,417.5,93.3"/>
		<path fill="#FBF6D4" d="M427,87c0-0.9,2.3-1.6,5.2-1.6c2.9,0,5,0.7,5.2,1.6c0,0.9-2.3,1.6-5.2,1.6C429.4,88.5,427,87.9,427,87"/>
		<path fill="#FBF6D4" d="M467.8,88.5c0.4-0.7,2.7-0.5,5.4,0.5c2.7,1.1,4.5,2.7,4.1,3.4c-0.4,0.7-2.7,0.5-5.4-0.5
			C469.2,90.8,467.4,89.4,467.8,88.5"/>
		<path fill="#FBF6D4" d="M488.6,104.8c0.2-0.9,2.7-0.9,5.4-0.2c2.7,0.7,4.8,2,4.5,2.9c-0.2,0.9-2.7,0.9-5.4,0.2
			C490.4,106.8,488.4,105.5,488.6,104.8"/>
		<path fill="#FBF6D4" d="M504.4,102.1c0.4-0.7,2.7-0.5,5.4,0.5c2.7,1.1,4.5,2.7,4.1,3.4c-0.4,0.7-2.7,0.5-5.4-0.5
			S504,102.8,504.4,102.1"/>
		<path fill="#FBF6D4" d="M485.4,120.8c0-0.9-2.3-1.6-5.2-1.4c-2.9,0-5,0.7-5,1.6c0,0.9,2.3,1.6,5.2,1.4
			C483.2,122.4,485.4,121.7,485.4,120.8"/>
		<path fill="#FBF6D4" d="M483.6,104.4c0.2-0.9-1.8-2.2-4.3-3.1c-2.7-0.9-5-0.9-5.4,0c-0.2,0.9,1.8,2.2,4.3,3.1
			C480.9,105.3,483.2,105.3,483.6,104.4"/>
		<path fill="#FBF6D4" d="M499.2,121.5c0-0.9-2.3-1.6-5.2-1.4c-2.9,0-5,0.7-5,1.6s2.3,1.6,5.2,1.4
			C496.9,123.1,499.2,122.4,499.2,121.5"/>
		<path fill="#FBF6D4" d="M492.9,112.9c0-0.9-2.2-1.8-4.8-2.2c-2.9-0.4-5.2,0.2-5.2,1.1s2.2,1.8,5,2.2
			C490.6,114.1,492.9,113.6,492.9,112.9"/>
		<path fill="#FBF6D4" d="M492.7,94.8c0.4-0.7,2.7-0.5,5.4,0.5c2.7,1.1,4.5,2.7,4.1,3.4c-0.4,0.7-2.7,0.5-5.4-0.5
			C494.2,97.1,492.4,95.7,492.7,94.8"/>
		<path fill="#FBF6D4" d="M513.9,115.8c0-0.9-2.3-1.6-5.2-1.4c-2.9,0-5,0.7-5,1.6c0,0.9,2.3,1.6,5.2,1.4
			C511.6,117.2,513.9,116.5,513.9,115.8"/>
		<path fill="#FBF6D4" d="M517.7,124.2c-0.2-0.9-2.5-1.1-5.4-0.5c-2.7,0.5-4.8,1.6-4.7,2.5c0.2,0.9,2.5,1.1,5.4,0.5
			C515.9,126.2,517.9,125.1,517.7,124.2"/>
		<path fill="#F7EDCD" d="M403.7,163.1c0,0,3.8,1.1,7.4,4.8c3.6,3.8,9.7,8.6,9.7,8.6l-2.5,3.2C418.3,180,408.2,170.3,403.7,163.1"/>
		<path fill="#D99133" d="M383.3,188.8c2.2,0.7,3.6,1.8,3.2,2.5c-0.2,0.7-2.2,0.9-4.1,0.2c-2.2-0.7-3.6-1.8-3.2-2.5
			C379.3,188.3,381.1,188.1,383.3,188.8L383.3,188.8z M486.4,207.8c2.2-0.4,3.9,0,4.1,0.7s-1.6,1.6-3.8,2s-3.9,0-4.1-0.7
			C482.5,209.1,484.3,208.2,486.4,207.8L486.4,207.8z M467.6,200.1c2.2,0.7,3.6,1.8,3.2,2.5c-0.2,0.7-2.2,0.9-4.1,0.2
			c-2.2-0.7-3.6-1.8-3.2-2.5C463.7,199.6,465.6,199.4,467.6,200.1L467.6,200.1z M495.6,200.3c-2.2,0.5-3.8,1.4-3.6,2.3
			c0.2,0.7,2,1.1,4.1,0.5c2.2-0.5,3.8-1.4,3.6-2.3C499.5,199.9,497.8,199.9,495.6,200.3L495.6,200.3z M400.7,194.2
			c2.2,0.7,3.6,1.8,3.2,2.5c-0.2,0.7-2.2,0.9-4.1,0.2c-2.2-0.7-3.6-1.8-3.2-2.5C396.7,193.6,398.7,193.6,400.7,194.2L400.7,194.2z
			 M427.2,196c2.2,0.2,3.9,0.9,3.9,1.6s-1.8,1.4-3.9,1.3c-2.2-0.2-3.9-0.9-3.9-1.6S425.1,195.8,427.2,196L427.2,196z M447,208.2
			c2.2,0.2,3.9,0.9,3.9,1.6c0,0.7-1.8,1.4-3.9,1.3c-2.2-0.2-3.9-0.9-3.9-1.6C443,208.7,444.8,208.2,447,208.2L447,208.2z
			 M444.8,197.9c2.2,0.2,3.9,0.9,3.9,1.6s-1.8,1.4-3.9,1.3c-2.2-0.2-3.9-0.9-3.9-1.6C440.9,198.5,442.7,197.9,444.8,197.9
			L444.8,197.9z M420,205.7c2.2,0.2,3.9,0.9,3.9,1.6s-1.8,1.4-3.9,1.3c-2.2-0.2-3.9-0.9-3.9-1.6S417.9,205.7,420,205.7L420,205.7z
			 M457.9,204.2c2,1.1,3.2,2.5,2.9,3.2c-0.4,0.7-2.2,0.4-4.1-0.5c-2-1.1-3.2-2.5-2.9-3.2C454,203,455.9,203.2,457.9,204.2
			L457.9,204.2z M471.4,209.6c2.2,0.2,3.9,0.9,3.9,1.6s-1.8,1.4-3.9,1.3c-2.2-0.2-3.9-0.9-3.9-1.6S469.2,209.6,471.4,209.6
			L471.4,209.6z M477.3,203.5c2.2,0.7,3.6,1.8,3.2,2.5c-0.2,0.7-2.2,0.9-4.1,0.2c-2.2-0.7-3.6-1.8-3.2-2.5
			C473.3,202.8,475.1,202.8,477.3,203.5L477.3,203.5z M395.5,198.5c2.2,0.7,3.6,1.8,3.2,2.5c-0.2,0.7-2.2,0.9-4.1,0.2
			c-2.2-0.7-3.6-1.8-3.2-2.5C391.5,197.9,393.5,197.9,395.5,198.5L395.5,198.5z M413,198.8c2,1.1,3.2,2.5,2.9,3.2
			c-0.4,0.7-2.2,0.4-4.1-0.5c-2-1.1-3.2-2.5-2.9-3.2C409.3,197.4,411.3,197.8,413,198.8L413,198.8z M435.5,202.8
			c2.2,0.2,3.9,0.9,3.9,1.6c0,0.7-1.8,1.4-3.9,1.3c-2.2-0.2-3.9-0.9-3.9-1.6S433.3,202.8,435.5,202.8"/>
		<path fill="#FBF6D4" d="M383.4,187.9c2.2,0.7,3.6,1.8,3.2,2.5c-0.2,0.7-2.2,0.9-4.1,0.2c-2.2-0.7-3.6-1.8-3.2-2.5
			C379.5,187.2,381.5,187.2,383.4,187.9L383.4,187.9z M486.6,206.9c2.2-0.4,3.9,0,4.1,0.7s-1.4,1.6-3.8,2c-2.2,0.4-3.9,0-4.1-0.7
			C482.9,208,484.5,207.1,486.6,206.9L486.6,206.9z M468,199.2c2.2,0.7,3.6,1.8,3.2,2.5c-0.2,0.7-2.2,0.9-4.1,0.2
			c-2.2-0.7-3.6-1.8-3.2-2.5C464,198.7,465.8,198.5,468,199.2L468,199.2z M496,199.4c-2.2,0.5-3.8,1.4-3.6,2.3
			c0.2,0.7,2,1.1,4.1,0.5c2.2-0.5,3.8-1.4,3.6-2.3C499.9,199.2,498.1,198.8,496,199.4L496,199.4z M401,193.3
			c2.2,0.7,3.6,1.8,3.2,2.5c-0.2,0.7-2.2,0.9-4.1,0.2c-2.2-0.7-3.6-1.8-3.2-2.5C397.1,192.7,398.9,192.6,401,193.3L401,193.3z
			 M427.6,195.1c2.2,0.2,3.9,0.9,3.9,1.6s-1.8,1.4-3.9,1.3c-2.2-0.2-3.9-0.9-3.9-1.6C423.6,195.4,425.4,194.9,427.6,195.1
			L427.6,195.1z M447.1,207.3c2.2,0.2,3.9,0.9,3.9,1.6s-1.8,1.4-3.9,1.3c-2.2-0.2-3.9-0.9-3.9-1.6
			C443.2,207.6,445,207.1,447.1,207.3L447.1,207.3z M445,197.1c2.2,0.2,3.9,0.9,3.9,1.6s-1.8,1.4-3.9,1.3c-2.2-0.2-3.9-0.9-3.9-1.6
			S442.8,197.1,445,197.1L445,197.1z M420.4,204.8c2.2,0.2,3.9,0.9,3.9,1.6s-1.8,1.4-3.9,1.3c-2.2-0.2-3.9-0.9-3.9-1.6
			C416.3,205.1,418.1,204.6,420.4,204.8L420.4,204.8z M458.1,203.3c2,1.1,3.2,2.5,2.9,3.2c-0.4,0.7-2.3,0.4-4.1-0.5
			c-2-1.1-3.2-2.5-2.9-3.2C454.3,201.9,456.1,202.3,458.1,203.3L458.1,203.3z M471.7,208.7c2.2,0.2,3.9,0.9,3.9,1.6
			s-1.8,1.4-3.9,1.3c-2.2-0.2-3.9-0.9-3.9-1.6C467.8,209.1,469.6,208.5,471.7,208.7L471.7,208.7z M477.7,202.6
			c2.2,0.7,3.6,1.8,3.2,2.5c-0.2,0.7-2.2,0.9-4.1,0.2c-2.2-0.7-3.6-1.8-3.2-2.5C473.7,201.9,475.5,201.9,477.7,202.6L477.7,202.6z
			 M395.8,197.6c2.2,0.7,3.6,1.8,3.2,2.5c-0.2,0.7-2.2,0.9-4.1,0.2c-2.2-0.7-3.6-1.8-3.2-2.5C391.9,197.1,393.7,196.9,395.8,197.6
			L395.8,197.6z M413.4,197.8c2,1.1,3.2,2.5,2.9,3.2c-0.4,0.7-2.2,0.4-4.1-0.5c-2-1.1-3.2-2.5-2.9-3.2
			C409.6,196.5,411.4,196.9,413.4,197.8L413.4,197.8z M435.7,201.9c2.2,0.2,3.9,0.9,3.9,1.6s-1.8,1.4-3.9,1.3
			c-2.2-0.2-3.9-0.9-3.9-1.6C431.7,202.4,433.5,201.7,435.7,201.9"/>
		<path fill="#723D38" d="M639.2,242.3c-4.3-0.9-7.4-4.1-9.2-9.7c-1.8-5.6-2.5-8.3-2-8.3c0.2,0-2.2,1.3-6.8,3.6
			c-5.6,2.7-10.6,4.8-15.4,6.1c-6.8,2-12.9,2.3-18.1,1.3c-4.3-0.9-8.1-1.8-11.1-2.7c-15.4-4.8-26.6-15.3-33.4-31.4
			c-6.1-14.4-7.2-28.4-3.4-42.2c6.3-20.3,17.9-39.5,35-58c21.5-23.5,43.3-33,65-28.5c5.4,1.1,12,3.2,19.6,6.5l8.6-25.3
			c1.6-3.8,3.2-7.5,4.8-11.3c3.2-5.9,6.6-8.4,9.9-7.9c2.2-0.2,4.1,0,5.7,0.4c0,0,2.3,1.1,7,3.4c2.5,1.3,4.5,3.8,6.3,7.4
			c1.8,3.8,2.3,6.8,1.8,9.5c-14.5,45.4-23.7,77.3-27.5,95.7l-13.5,78.1c-0.5,2.3-2.5,5.7-6.1,10.4c-1.6,1.6-4.3,2.7-7.7,3.4
			C644.7,242.8,641.7,242.8,639.2,242.3L639.2,242.3z M634.9,182.5c6.1-29.6,9.7-47.2,10.9-52.4c2.2-7.9,3.2-12.6,3.4-13.8
			c0.4-2-0.9-5-3.8-8.8c-2.9-3.9-5.4-6.1-7.5-6.5c-12.2-2.5-26.2,5.6-42.2,24.2c-14.4,16.9-23,32.7-26,47
			c-1.3,6.5-0.2,12.9,3.4,19.4c3.6,6.5,8.8,10.4,15.8,11.8c8.1,1.1,17.8-1.3,29.1-7C628.6,191.3,634.1,186.6,634.9,182.5"/>
		<path fill="#4B7AAB" d="M211,521.5c-4.5,1.4-9,0-13.5-4.3c-4.5-4.3-6.5-6.5-6.1-6.6c0.2,0-1.3,2.2-4.5,6.8
			c-3.6,5.4-7.4,9.9-11.1,13.5c-5.4,5.2-10.8,8.8-16.2,10.4c-4.5,1.4-8.3,2.5-11.7,3.2c-16.7,3.4-32.5-0.5-47.2-12
			c-12.9-10.2-21.2-22.6-24.8-37.3c-4.5-22.1-3.6-45.9,2.5-71.8c7.9-32.8,23.2-52.8,45.6-59.8c5.6-1.8,12.7-3.1,21.4-3.9l-5-27.8
			c-0.4-4.5-0.9-8.8-1.4-12.9c0-7.2,1.8-11.3,5.2-12.4c1.8-1.3,3.8-2.2,5.6-2.7c0,0,2.7-0.2,8.3-0.4c2.9-0.2,6.1,1.1,9.5,3.8
			c3.4,2.5,5.6,5.2,6.5,7.9c9.9,49.5,17.8,83.8,23.7,102.7l27.6,79.3c0.7,2.3,0.5,6.6-0.4,12.7c-0.7,2.3-2.5,4.7-5.4,7
			C216.4,519,213.7,520.6,211,521.5L211,521.5z M176.5,468.2c-9.7-30.7-15.3-48.6-16.7-54.2c-2.2-8.4-3.4-13.3-3.8-14.5
			c-0.7-2.2-3.2-4.1-7.9-6.3s-8.1-2.9-10.2-2.2c-12.6,3.9-21.4,18.7-26.6,44.1c-4.7,23-4.7,42,0.2,56.9c2.2,6.6,6.5,12,13.1,16.2
			c6.6,4.1,13.5,5.2,20.6,2.9c8.1-3.2,15.8-10.4,23.3-21.4C174.9,479.5,177.8,472.3,176.5,468.2"/>
		<path fill="#C20025" d="M127.7,257.5c0-0.2-2.5-4.8-7.4-14.4c-3.8-7.5-7.5-15.3-11.3-23c-4.5-9-7.5-13.5-9.2-13.8
			c-3.9,0.4-8.3-0.5-12.9-3.1c-4.7-2.5-7.4-5.2-8.3-8.3c-0.5-1.8-0.2-4.3,0.7-7.5c0.9-3.2,2-5.4,3.1-6.5c1.8-1.4,4.7-3.6,8.4-6.6
			c-1.8-6.5-3.4-12.9-5.2-19.4c-1.8-7.5-3.1-15.4-3.8-23.5c-2.7-29.3,1.1-53.1,11.3-71.8c7-11.3,14.4-19,22.3-23
			c17.6-4.7,34.6-2,51.1,8.4c15.6,9.9,25.5,22.6,29.6,38.2c0.7,2.7,0.4,6.5-1.3,10.8c-2,4.8-4.5,7.7-7.9,8.6
			c-3.2,0.9-5.2,1.4-5.6,1.4c-4.8,0.4-8.6,0-10.9-1.3c-2.5-1.3-3.9-2.3-4.8-3.4c-3.9-7.9-7.9-15.6-12-23.2
			c-6.5-10.6-12.7-15.1-19.2-13.3c-3.9,1.1-7.9,4.5-11.7,10.2c-5,12.9-7.2,28.9-6.6,48.3c0.9,10.4,2,18.1,3.4,23
			c1.6,6.3,2.9,10,3.4,11.1c1.1,2,3.1,2.7,5.4,2l38-11.1c4.1-1.1,9.2-1.6,14.5-1.3c8.1,0.5,12.7,3.1,14,7.5c1.8,7-3.4,14.2-16,21.5
			c-9.2,5.2-18.7,9.3-28.2,12.2c-5.2,2.3-8.8,3.9-10.8,4.7c-2,0.9-3.4,1.4-4.1,1.8c2.5,7,7.5,16.3,15.1,28.4
			c7.5,11.8,11.3,17.6,11.1,17c0.5,1.8,0.5,5.2,0,10.6c-0.5,5.2-3.1,9.2-7.5,11.8c-0.4,0-2.2,0.5-5.6,1.1c-3.4,0.7-7.9,0.7-13.3,0
			c-2-0.5-3.6-1.3-5-2C129.9,259.1,128.8,258.4,127.7,257.5"/>
		<path fill="#F2F0EF" d="M393.5,317.5h-43.4c0,0-3.4-0.5-2.2,3.6c1.3,4.3,7.4,22.3,0.4,44C337,400.4,333,425,365,449.7
			c4.7,3.6,9.7,6.8,15.1,9.2c0.7,1.1,1.6,2.2,2.7,3.4c3.9,4.8,7.9,33.4,4.3,45.2c-3.6,11.8-15.8,17.9-15.8,17.9s-3.9,0-12.4,1.4
			c-8.4,1.4-12,7.7-2.5,14c10.8,7,64.1,7,74.7,0c9.5-6.3,6.1-12.4-2.5-14c-8.4-1.4-12.4-1.4-12.4-1.4s-12.2-6.1-15.8-17.9
			c-3.6-11.8,0.4-40.4,4.3-45.2c1.1-1.3,2-2.3,2.7-3.4c5.2-2.3,10.2-5.6,15.1-9.2c31.9-24.8,28-49.2,16.7-84.7
			c-7-21.9-0.9-39.8,0.4-44c1.3-4.3-2.2-3.6-2.2-3.6H393.5L393.5,317.5z"/>
		<path fill="#E2E1E0" d="M482.5,259.1l-45.6,31.6l0,0c-0.4,0.4-5,3.9-6.6,12.7c-1.4,7.9-8.8,44.1-11.7,58.1l-5.7-1.1
			c2.7-13.6,10-49,11.7-58.1c2.2-11.7,9-16.5,9.2-16.5l0,0l45.6-31.6L482.5,259.1L482.5,259.1z"/>
		<path fill="#B6B3B0" d="M481.1,257.2l-33.9,23.5c0,0-14.9,7.5-17.9,18.8c-3.1,11.3-13.6,60.1-13.6,60.1s0.5,0.9,1.8,1.8l1.1,0.2
			c2.9-13.8,10.2-50.3,11.7-58.1c1.6-8.8,6.3-12.4,6.6-12.7l0,0l45.6-31.6L481.1,257.2L481.1,257.2z"/>
		<path fill="#609B3C" d="M347.9,293.1c16.2,0,29.1,13.1,29.1,29.1c0,16-13.1,29.1-29.1,29.1c-16.2,0-29.1-13.1-29.1-29.1
			C318.8,306.2,331.8,293.1,347.9,293.1"/>
		<path fill="#46843C" d="M335.7,304.4l-8.1,2.3c0,0-3.6,3.4-4.7,15.3c-1.1,11.8,8.4,20.6,8.4,20.6l-3.1,1.3
			c5.2,4.7,12,7.5,19.6,7.5c16.2,0,29.1-13.1,29.1-29.1c0-3.4-0.5-6.6-1.6-9.7c-2.7-1.6-5.6-2.7-7.5-2.9
			C363.7,309.6,335.7,304.4,335.7,304.4"/>
		<path fill="#EDC724" d="M349.5,297.4c14,0,25.3,11.3,25.3,25.3S363.5,348,349.5,348c-14,0-25.3-11.3-25.3-25.3
			S335.5,297.4,349.5,297.4"/>
		<path fill="#F7E960" d="M348.3,324.8l-9,9l-5.7,5.6c2.7,2.5,5.9,4.5,9.5,5.6l2-7.7L348.3,324.8L348.3,324.8z M349.5,299.5
			c2,0,3.8,0.2,5.6,0.7l-2.2,7.7l-3.4,12.2l-3.4-12.2l-2.2-7.7C345.9,299.7,347.7,299.5,349.5,299.5L349.5,299.5z M356,300.4
			c3.6,1.1,7,3.1,9.5,5.6l-5.7,5.6l-9,9l3.2-12.2L356,300.4L356,300.4z M366.4,306.7c2.5,2.7,4.5,5.9,5.6,9.5l-7.7,2l-12.2,3.2l9-9
			L366.4,306.7L366.4,306.7z M372.1,317.1c0.4,1.8,0.7,3.6,0.7,5.6s-0.2,3.8-0.7,5.6l-7.7-2.2l-12.2-3.4l12.2-3.4L372.1,317.1
			L372.1,317.1z M371.8,329.1c-1.1,3.6-3.1,7-5.6,9.5l-5.6-5.7l-9-9l12.2,3.2L371.8,329.1L371.8,329.1z M365.7,339.4
			c-2.7,2.5-5.9,4.5-9.5,5.6l-2-7.7L351,325l9,9L365.7,339.4L365.7,339.4z M355.1,345.3c-1.8,0.4-3.6,0.7-5.6,0.7
			c-2,0-3.8-0.2-5.6-0.7l2.2-7.7l3.4-12.2l3.4,12.2L355.1,345.3L355.1,345.3z M332.8,338.6c-2.5-2.7-4.5-5.9-5.6-9.5l7.7-2l12.2-3.2
			l-9,9L332.8,338.6L332.8,338.6z M327.1,328.2c-0.4-1.8-0.7-3.6-0.7-5.6s0.2-3.8,0.7-5.6l7.7,2.2l12.2,3.4l-12.2,3.4L327.1,328.2
			L327.1,328.2z M327.4,316.2c1.1-3.6,3.1-7,5.6-9.5l5.6,5.7l9,9l-12.2-3.2L327.4,316.2L327.4,316.2z M333.5,306
			c2.7-2.5,5.9-4.5,9.5-5.6l2,7.7l3.2,12.2l-9-9L333.5,306L333.5,306z"/>
		<path fill="#CA5225" d="M350.4,355.7h86c0.5,3.1,1.3,6.1,2.3,9.3c11.1,34.6,15.1,58.7-14.5,82.9H424l-0.4,0.4
			c-0.5,0.5-1.1,0.9-1.8,1.4c-4.7,3.6-9.7,6.8-15.1,9.2l-0.5,0.7c-1.8,0.7-9.7,3.1-26,0l-0.7-0.9c-5.2-2.3-10.2-5.6-15.1-9.2
			c-31.9-24.8-28-49.2-16.7-84.7C349.2,361.8,350.1,358.7,350.4,355.7"/>
		<path fill="#B64325" d="M341.4,390.3c2.2,10.2,8.6,28.7,26.2,38.6c25.1,14.4,53.1,7,59.8,0.4c6.6-6.6,17-32.8,17-32.8
			s0.9,2.3,2.3,5.7c0.7,16.9-4.8,31.4-22.6,45.9H424l-0.4,0.4c-0.5,0.5-1.1,0.9-1.8,1.4c-4.7,3.6-9.7,6.8-15.1,9.2l-0.5,0.7
			c-1.8,0.7-9.7,3.1-26,0l-0.7-0.9c-5.2-2.3-10.2-5.6-15.1-9.2C341.1,431.3,337.1,412.9,341.4,390.3"/>
		<path fill="#B64325" d="M436.4,355.9c-5.9,0.2-14,1.1-18.3,1.4c-4.5,0.4-21.5,1.1-27.6,1.3c-6.1,0-10.2-0.9-13.3-0.9
			c-3.2,0-9.7-0.5-11.5-0.5s-9.5,0-15.3-0.2c0.2-0.5,0.2-0.9,0.2-1.4L436.4,355.9L436.4,355.9L436.4,355.9z"/>
		<path fill="#D47B2D" d="M343.4,394.5c0,0,0.4,21.2,15.3,35c10.6,9.9,23.7,15.6,36.6,16c17.6,0.7,34.5-8.3,43.1-29.8
			c6.1-15.4,6.5-22.4,6.5-22.4s0.7,1.1,1.8,2.7c2.5,19.4-2.2,35.7-22.1,52h-0.2l-0.4,0.4c-0.5,0.5-1.1,0.9-1.8,1.4
			c-4.7,3.6-9.7,6.8-15.1,9.2l-0.5,0.7c-1.8,0.7-9.7,3.1-26,0l-0.7-0.9c-5.2-2.3-10.2-5.6-15.1-9.2c-20.8-16.2-26.4-32.3-24.6-51.3
			C342.2,396.1,343.4,394.5,343.4,394.5"/>
		<path fill="#E2E1E0" d="M396.2,474c0,0-2,26.7,0.2,37c2.2,10.2,7.9,12.6,10.4,17c2.5,4.5-0.5,5.2-4.5,6.5c-4.1,1.4-5,1.4-5,1.4
			s1.8,0.7,5.7,0.4c3.9-0.5,6.5-0.5,6.5-0.5s-1.4,2.3-5.9,3.1c-4.5,0.7-6.5,1.1-6.5,1.1s8.4,0.5,9.3,0.5c0.9-0.2,0.9,2.5-5,2.9
			c-5.9,0.5-14.2,0.5-20.3,0.2c-1.8-0.2-3.4-0.4-4.8-0.4l0.2-2l8.3-1.3c0,0-0.4,0-3.6-0.5c-3.2-0.5-4.8-4.8-4.8-4.8s0,0,5.2,1.4
			c5.2,1.4,11.8-0.9,11.8-0.9s-0.4,0-4.3,0s-9.3-1.3-9.7-5.7c-0.4-4.5,6.1-5.2,10.6-15.3c4.5-10.1,2.2-31.9,0.5-40.9
			c-1.4-9.2-0.4-4.8,1.8-7.4c1.3-1.4,3.4-0.9,4.8-0.2C396.2,469.5,396.2,474,396.2,474L396.2,474z M370.3,542.5l-1.1,2.2
			c19.9,2.9,53.3,1.8,61.6-3.8c2-1.3,3.4-2.5,4.3-3.8h-2.9c0,0,2-2.3,0-3.9c-2-1.6-5.7-3.4-5.2-2.5c0.5,0.7,2.3,4.5,0.4,5.9
			c-2,1.4-4.7,1.6-4.7,1.6s-5-5.6-5-6.5c0-0.4-0.5-2.9-1.3-6.3c-0.2,0-0.4,0-0.4,0s-12.2-6.1-15.8-17.9c-3.6-11.8,0.4-40.4,4.3-45.2
			c0.7-0.9,1.4-1.8,2.2-2.5c-1.8,0.7-9.7,3.1-26,0c0.5,0.7,1.3,1.6,2,2.5c3.9,4.8,7.9,33.4,4.3,45.2c-3.4,11.3-14.5,17.2-15.8,17.9
			c-1.6,2.9-2.9,5.2-2.9,5.2l-6.6,10.4L370.3,542.5L370.3,542.5z"/>
		<path fill="#777874" d="M416.5,542.3c0,0,9.5-1.6,12.2-4.5c2.5-2.9,2.5-6.3,2.5-6.3s2.3-0.9,3.4,2.2c0.4,0.9,0.5,2.2,0.7,3.2
			c-0.9,1.3-2.3,2.7-4.5,4.1c-2.7,1.8-8.1,3.1-14.7,3.9C416.5,544.1,416.6,543.2,416.5,542.3L416.5,542.3z M370.9,542.3
			c0,0-9.5-1.6-12.2-4.5c-2.5-2.9-2.5-6.3-2.5-6.3s-2.3-0.9-3.4,2.2c-0.4,1.1-0.7,2.5-0.7,3.8c0.9,1.1,2.3,2.3,3.9,3.4
			c2.7,1.8,8.3,3.1,15.3,3.9C370.9,544.1,370.9,543.4,370.9,542.3L370.9,542.3z M369.4,453.1c3.4,2.2,6.8,4.1,10.4,5.7
			c0.7,1.1,1.6,2.2,2.7,3.4c3.9,4.8,7.9,33.4,4.3,45.2c-3.6,11.8-15.8,17.9-15.8,17.9s0,0-0.2,0c-2,2.2-4.8,5.2-7,6.5
			c-3.6,2.2-3.4,5.2,0,7c3.4,1.8,14.4,2.7,14.4,2.7s-4.5-0.5-5.7-3.4V538c4.3,1.6,10.8,3.1,20.6,3.4c11.5,0.4,18.1-1.1,22.1-2.7
			c-1.6,2.2-5.4,2.7-5.4,2.7s10.9-0.9,14.4-2.7c3.4-1.8,3.6-4.8,0-7c-2.2-1.3-5-4.1-7-6.3c-0.5,0-0.9,0-0.9,0s-12.2-6.1-15.8-17.9
			c-3.6-11.8,0.4-40.4,4.3-45.2c1.1-1.3,2-2.3,2.7-3.4c3.2-1.4,6.6-3.2,9.7-5.4c-2.3,0.9-4.5,1.6-6.1,2c-6.1,1.8-7.4,6.1-10.9,17.9
			c-3.6,11.8-2.5,30.1-0.9,36.1c1.4,6.1,9.7,12.7,12.4,15.4c2.7,2.7,3.4,4.5,3.1,7.9c-0.4,3.1,1.6,2.5,1.3,4.3
			c-3.8,1.1-10.4,2.2-22.6,2c-10.2-0.2-16.9-1.3-21-2.5c0-1.3,1.4-1.3,1.3-3.9c-0.4-3.4,0.4-5.2,3.1-7.9c2.7-2.7,10.9-9.3,12.4-15.4
			s2.7-24.2-0.9-36.1c-3.6-11.8-4.8-16.2-10.9-17.9C374.8,454.9,372.1,454,369.4,453.1"/>
		<path fill="#FFFFFF" d="M360.1,317.5c1.3,4.8,3.2,14.4,2.3,27.1c-1.3,19.4-6.1,33-7.9,49.2c-1.8,16.2,3.6,33,7.5,38.6
			c3.9,5.4,11.3,8.8,11.3,8.8h9.2c0,0-12.4-9.7-16.3-23.7s-3.6-29.1,2.7-47.7c6.5-18.5,5.4-32.8,3.4-44.3c-0.5-3.4-1.1-5.9-1.6-7.9
			H360.1L360.1,317.5z"/>
		<path fill="#FFFFFF" d="M425.8,317.5c-0.5,4.1-1.3,10.4-1.6,17.2c-0.7,11.7,0.4,17.6,2.5,27.6c2.3,10,3.1,28.9,1.4,41.5
			s-4.7,17.2-4.7,17.2l6.3-6.6c0,0,4.7-19.4,3.6-31.4c-1.1-12-4.5-26.4-5.6-37c-0.9-8.1,1.3-22.3,2.5-28.7h-4.5V317.5z"/>
		<path fill="#FFFFFF" d="M359.9,320.3h-7.2c0,0-2.5,0.5-1.3,4.5c1.3,3.8,2.2,14.2,1.6,20.1c-0.2,3.1-1.3,6.1-2.3,8.4
			c2.2-16.3-2-28.9-3.1-32.3c-1.3-4.3,2.2-3.6,2.2-3.6h43.4h43.4c0,0,3.4-0.5,2.2,3.6c-1.1,3.6-5.4,16.5-2.9,33.4v1.1
			c0,0-2.5-17.6-1.6-24.8c0.9-7.4,1.4-9.7,1.4-9.7C434.9,320.2,369.1,320.3,359.9,320.3"/>
		<path fill="#FFFFFF" d="M354,375.4c0,0-4.5,14-3.1,28.5s5.4,24.6,5.4,24.6S340,400.4,354,375.4"/>
		<path fill="#FFFFFF" d="M436,389.4c0,0,2.7,12.4-0.4,24.2c-3.1,11.8-6.1,16.2-6.1,16.2S444.1,414.6,436,389.4"/>
		<path fill="#777874" d="M349.3,323.4c0.5,1.4,1.1,3.1,1.4,5c0.2,0.5,0.4,0.9,0.4,0.9l-0.2,0.2c1.8,8.1,2.3,19.9-1.3,36.1
			c-7.9,35.2-9.3,59.2,9.3,75.9c7.4,6.5,13.6,10.6,18.7,13.1c12.6,6.3,21.2,5.6,33.7-1.6c4.5-2.5,9.7-6.1,15.6-11.3
			c18.8-16.7,17.2-40.7,9.3-75.9c-3.4-14.9-3.1-26.2-1.6-34.3c0-0.2-0.2-0.2-0.2-0.2s1.1-3.8,2-8.4c0.9-4.5-2.5-4.1-2.5-4.1
			s-79.3-0.5-83.5,0.5C349.2,319.3,349,321.2,349.3,323.4L349.3,323.4z M439.1,318.5L439.1,318.5L439.1,318.5L439.1,318.5
			L439.1,318.5v0.2l0,0l0,0l0,0l0,0l0,0l0,0v0.2l0,0l0,0l0,0l0,0l0,0l0,0l0,0l0,0l0,0l0,0l0,0l0,0l0,0l0,0l0,0l0,0l0,0l0,0l0,0l0,0
			l0,0v0.2l0,0l0,0l0,0l0,0l0,0l0,0l0,0l0,0l0,0l0,0l0,0l0,0l0,0l0,0l0,0l0,0l0,0l0,0l0,0l0,0l0,0l0,0l0,0l0,0l0,0l0,0l0,0v0.2l0,0
			l0,0v0.2l0,0l0,0l0,0l0,0v0.2l0,0l0,0v0.2v0.2l0,0v0.2v0.2l0,0l0,0v0.2v0.2l0,0v0.2v0.2l0,0v0.2v0.2l0,0l0,0v0.2v0.2l0,0v0.2v0.2
			l0,0v0.2v0.2v0.2l0,0v0.2v0.2l0,0v0.2v0.2l0,0v0.2v0.2v0.2l0,0v0.2v0.2l0,0v0.2v0.2l0,0v0.2v0.4l0,0l0,0v0.2v0.2l0,0v0.2v0.2v0.2
			v0.2v0.2v0.2l0,0l-0.2,0.5l0,0v0.4v0.2v0.2l-0.2,0.5l0,0v0.2v0.2v0.2v0.2v0.4l0,0l0,0l0,0l-0.2,0.5l0,0v0.5v0.2l0,0v0.5l0,0l0,0
			c-1.3,8.1-1.6,19.4,2.5,32.1c6.5,20.1,10.4,36.8,6.8,51.9l0,0c-2.5,10.8-9,21-21.4,31l0,0h-0.2l-0.4,0.4l0,0l0,0l0,0l0,0l0,0
			l-0.4,0.2l0,0l0,0l0,0c-0.4,0.4-0.9,0.7-1.3,1.1c-4.7,3.6-9.7,6.8-15.1,9.2l0,0l0,0l0,0l0,0l0,0l-0.4,0.5l0,0l0,0
			c-1.8,0.7-9.7,3.1-26,0l0,0l0,0l0,0l-0.4-0.5l0,0l0,0l0,0l0,0l0,0c-5.2-2.3-10.2-5.6-15.1-9.2c-0.5-0.4-0.9-0.7-1.4-1.1l-0.2-0.2
			c-0.4-0.4-0.9-0.7-1.3-1.1h-0.2c-0.4-0.4-0.9-0.7-1.3-1.1l0,0l0,0c-0.4-0.4-0.9-0.7-1.3-1.1h-0.2c-0.4-0.4-0.7-0.7-1.1-1.1
			l-0.2-0.2c-0.4-0.4-0.7-0.7-1.1-1.1l-0.2-0.2c-0.4-0.4-0.7-0.7-1.1-1.1l-0.2-0.2c-0.4-0.4-0.5-0.5-0.9-0.9l-0.2-0.2
			c-0.4-0.4-0.5-0.5-0.9-0.9l-0.2-0.4c-0.4-0.4-0.5-0.7-0.9-0.9l-0.2-0.2c-0.2-0.4-0.5-0.5-0.7-0.9l-0.2-0.2
			c-0.2-0.4-0.5-0.5-0.7-0.9l-0.2-0.4c-0.2-0.4-0.4-0.5-0.7-0.9l-0.4-0.4c-0.2-0.2-0.4-0.5-0.5-0.7l-0.4-0.4
			c-0.2-0.2-0.4-0.5-0.5-0.7l-0.4-0.5c-0.2-0.2-0.4-0.4-0.4-0.7c-0.2-0.2-0.2-0.4-0.4-0.5c-0.2-0.2-0.4-0.5-0.4-0.7l-0.2-0.5
			c-0.2-0.2-0.2-0.4-0.4-0.7c-0.2-0.2-0.2-0.5-0.4-0.7l-0.2-0.4c-0.2-0.2-0.2-0.5-0.4-0.7l-0.2-0.4c-0.2-0.4-0.4-0.7-0.5-0.9
			l-0.2-0.2c-0.2-0.4-0.2-0.5-0.4-0.9l-0.2-0.2c-0.2-0.4-0.2-0.5-0.4-0.9v-0.2c-0.4-0.9-0.5-1.6-0.9-2.5l0,0
			c-0.4-1.3-0.7-2.5-1.1-3.8c-3.6-15.1,0.5-31.8,6.8-51.9c4.5-14.2,3.6-26.6,2-34.8v-0.2v-0.4v-0.2c0-0.4-0.2-0.5-0.2-0.7v-0.2V327
			v-0.2v-0.2c-0.2-0.5-0.2-0.9-0.4-1.4V325v-0.2v-0.2v-0.2l0,0l0,0v-0.2v-0.2l0,0v-0.2v-0.2v-0.2l0,0v-0.2v-0.2V323l0,0v-0.2v-0.2
			v-0.2l0,0v-0.2v-0.2l0,0l0,0V322v-0.2l0,0l0,0v-0.2v-0.2l0,0v-0.2v-0.2v-0.2l0,0v-0.2v-0.2v-0.2l0,0v-0.2V320l0,0l0,0v-0.2v-0.2
			l0,0l0,0l0,0l0,0l0,0l0,0l0,0l0,0l0,0l0,0l0,0l0,0l0,0l0,0l0,0l0,0l0,0l0,0l0,0l0,0l0,0l0,0l0,0l0,0l0,0l0,0l0,0l0,0l0,0l0,0l0,0
			l0,0l0,0l0,0l0,0l0,0l0,0l0,0l0,0l0,0l0,0l0,0l0,0l0,0l0,0l0,0l0,0l0,0l0,0l0,0l0,0l0,0l0,0l0,0l0,0l0,0l0,0l0,0l0,0l0,0l0,0l0,0
			l0,0l0,0l0,0l0,0l0,0l0,0l0,0l0,0l0,0l0,0l0,0l0,0l0,0l0,0l0,0c0-2.5,2.3-2,2.3-2h43.4h43.4C436.9,317.5,438.5,317.1,439.1,318.5"
			/>
		<path fill="#FFFFFF" d="M393.7,481.5c0,0-0.2,29.8,0.2,35.2c0.4,5.4,3.9,10.2,4.1,12.9c0.2,2.7-3.8,3.9-3.8,3.9s5.4,0.2,8.8-1.3
			c3.4-1.4-0.9-4.5-4.1-11.5C395.6,513.6,395.3,511.1,393.7,481.5"/>
		<path fill="#B64325" d="M403,461.4c0,0-4.1,0.5-10.4,0.7c-6.3,0.2-8.4-1.1-8.4-1.1s2,3.8,2.3,5.4c0.4,1.6,0.4,2.2,0.4,2.2
			s3.1-4.8,7-3.8c4.1,1.1,5.6,4.7,5.6,4.7S402.6,462.1,403,461.4"/>
		<path fill="#599E3C" d="M289,390.2c-0.9-2.5-2.2-9.9-3.9-22.3l-1.6-6.3c-2.5,2.2-5.2,5.2-8.3,9.2c-6.5,8.8-11.3,17-14.2,24.8
			c-2.3,7.2-2.2,17.2,0.7,30.5c0.7,2.7,2.5,7.7,5.4,14.9l14.2,28.7c2.5,6.3,1.6,11.3-2.7,15.4c-2.5,2.3-4.8,3.6-6.8,4.1
			c-2,0.5-3.1,0.9-3.4,0.9c-4.1,1.1-7.7,0.5-10.8-1.6c-2.2-1.8-4.3-4.7-6.3-8.8c-1.4-3.2-2.9-6.6-4.3-10.1
			c-3.1-6.3-9.7-23.5-19.9-51.3c-1.8-5-5.2-13.6-9.9-25.8c-3.8-10-5.7-17-6.3-21c-1.1-7.9,1.1-12.9,6.5-14.9
			c3.1-1.1,6.8-0.7,11.7,0.9c3.9,1.4,6.3,2.5,7,3.4c1.3,1.6,2.3,3.9,3.2,6.8c1.1,3.4,2,5.6,2.7,6.8c2.2-3.8,6.1-9.9,11.5-17.9
			c4.5-6.1,11.3-13.3,20.5-21.4c8.3-7.4,13.6-11.5,16-12.4c6.5-2.3,12.9-2,19.2,1.6c2.7,3.2,4.1,12.2,4.3,26.7
			c0.7,16.5,1.1,30.9,0.9,42.9c-0.9,3.4-2,5.6-3.4,6.5c-1.4,0.9-3.2,1.8-5.4,2.7C298.9,406.1,293.3,401.6,289,390.2"/>
		<path fill="#F7E532" d="M551.1,457.5c0-1.3,0.2-3.1,0.7-5.4c0.5-2.3,0.9-6.6,1.3-13.3l3.2-80.2c-1.6-1.8-3.6-2-6.1-0.7
			c-5,3.4-11.5,8.8-19.4,16.3c-17,18.7-27.3,37.7-30.5,56.7c-1.4,6.6-2.3,13.5-2.9,20.6c-0.7,2-2,3.9-3.6,6.3c-2.7,3.4-5.4,5-8.1,5
			c-3.8,0.4-6.5,0.2-8.1-0.5c-1.6-0.7-2.5-1.1-2.7-1.1c-3.8-2-6.1-7-7-15.4c-0.4-6.3-0.7-14.2-0.9-23.7l0.9-56.5
			c0-8.6,0.4-14.2,0.9-16.7c1.4-6.6,5-9.9,10.8-9.9c1.8,0,4.3,0.9,7.7,2.5c3.4,1.8,5.6,3.8,6.6,6.1c1.1,2.3,1.4,10.6,1.1,24.6
			l0.2,5.2c5.7-7.4,10.4-13.1,13.8-17.2c6.1-7,11.7-12.6,16.9-16.9c5.6-4.5,11.8-8.8,19-12.9c9.2-5.2,16.2-7.9,21.2-7.9
			c6.1,0,10.9,2.7,14.7,8.1c2.9,4.5,4.3,9,4.3,13.8c0,0.5-0.7,11.3-1.8,32.7c-1.3,21.4-1.8,36.6-1.8,46.1v13.6
			c0,8.8-0.5,16.3-1.8,22.8c-0.4,2-1.8,4.3-4.5,7c-3.4,3.4-7.4,5.4-11.7,5.9c-3.9,0-7-1.8-9.3-5.4C552,464.3,551.1,461,551.1,457.5"
			/>
		<path fill="#599E3C" d="M613.5,453l13.3-56.4c0.5-2.9,3.8-15.4,9.3-37.5c6.6-26.6,11.8-45.6,15.8-57.3c0.5-1.8,2.9-3.8,6.8-6.1
			s7.2-3.2,9.5-2.7c0.5,0.2,0.9,0.4,1.3,0.5c0.4,0.2,0.7,0.4,1.3,0.5c6.5,1.1,11.5,5.2,15.1,12.4c3.2,6.1,4.3,12,3.2,17.6
			l-25.8,97.6c0.5,0.7,0.9,1.1,1.3,1.1c3.6,0.7,17.6-9,42-29.1c24.6-20.1,38.6-29.8,42-29.3c6.3,1.1,11.5,4.5,15.4,10.1
			c4.1,5.6,5.6,11.5,4.3,17.6c-0.7,3.9-9,12-24.6,24.2c-10,7.2-20.1,14.4-30,21.4l11.7,35.7c4.3,9.7,8.4,19.4,12.7,29.3
			c8.1,18.7,11.8,29.4,11.3,32.3c-0.9,5.2-4.3,9-10.2,11.5c-4.8,2-9.3,2.7-13.5,1.8c-0.4,0-0.9-0.4-1.8-0.5c-0.9-0.4-1.4-0.5-2-0.7
			c-7.2-1.3-16.7-15.3-28.7-42.4c-6.3-14-12-28.7-17.4-44.1c-4.7,2.5-9.3,5-13.8,7.5c-6.6,3.8-10.2,7-10.9,9.9
			c0,0.5-0.2,5.4-0.7,14.9c-0.5,9.3-0.7,14.4-0.7,14.9c-0.7,3.6-2.9,6.5-6.3,8.6c-2.2,1.3-4.1,2.5-6.3,3.6
			c-5.4,1.3-10.4,1.1-15.3-0.2C608.8,517.6,606,495.3,613.5,453"/>
	</g>
</g>
</svg>
